<?xml version="1.0" encoding="utf-8"?>
<!-- Generator: Adobe Illustrator 21.1.0, SVG Export Plug-In . SVG Version: 6.00 Build 0)  -->
<svg version="1.1" id="Layer_1" xmlns="http://www.w3.org/2000/svg" xmlns:xlink="http://www.w3.org/1999/xlink" x="0px" y="0px"
	 viewBox="0 0 800 800" style="enable-background:new 0 0 800 800;" xml:space="preserve">
<style type="text/css">
	.st0{fill:none;stroke:#444444;stroke-miterlimit:10;}
	.st1{fill:none;stroke:#F1161B;stroke-width:5;stroke-miterlimit:10;}
	.st2{opacity:0.88;fill:#FFFFFF;stroke:#BDBDBD;stroke-width:5;stroke-miterlimit:10;enable-background:new    ;}
	.st3{opacity:0.86;}
	.st4{fill:#332B26;}
	.st5{fill:#F1161B;stroke:#FFFFFF;stroke-width:2;stroke-miterlimit:10;}
	.st6{enable-background:new    ;}
	.st7{fill:#FCFBF7;}
</style>
<g id="straw">
	<polygon class="st0" points="403.7,126.9 337,60.3 323.3,73.9 384,134.7 384,353.1 403.4,353.1 403.4,127.2 	"/>
	<polyline class="st1" points="332.9,64.3 395.5,127.6 395.5,350.7 	"/>
</g>
<g id="bottle">
	<path class="st2" d="M424.8,174c2.7-1.3,4.5-4,4.5-7.1c0-4.3-3.5-7.9-7.9-7.9h-59.2c-4.3,0-7.9,3.5-7.9,7.9c0,3.5,2.3,6.5,5.5,7.5
		c-5.4,3.9-10.4,9.3-10.4,13.1v2.4c0,6.6,5.4,12.1,12.1,12.1h60.4c6.6,0,12.1-5.4,12.1-12.1v-2.4C434.2,183.6,429.8,178,424.8,174z"
		/>
	<path class="st2" d="M434.8,746l-89.5-2.4c-6.6,0-48.4-10.9-37.5-58c0,0,13.3-38.8,13.3-72.5c0-39.9-18.3-125.4-15.1-167.4
		c6.6-87.7,43.4-153,45.3-185.6c1.2-20.6,5.5-56.3,6-58h68.9c0,0,4.5,34.4,6,53.2c2.4,30.2,44.7,123.3,46.5,193.3
		c1.1,40.5-19.3,120.5-17.5,161c0.9,21.5,20.6,83.4,20.6,83.4C486.8,738.7,441.5,746,434.8,746z"/>
</g>
<g id="water" class="st3">
	<path class="st4" d="M427,738.7l-74.6-2c-5.5,0-46.4-8.7-38.8-46.3c0.2-1,0.5-2,0.9-3c2.6-6.5,12.9-34.1,12.9-58.5
		c0-32.9,0.4-60.9-7.8-94.7c-8.6-35.4-8.4-79.7-2.2-117.7c6.7-40.9,20-74.5,23-81.6c5.5-13,13.5-44,17.1-55c0,0,21.7,2.1,34.2,4.6
		c12.1,2.4,37.7,5.1,37.7,5.1s6.4,25.4,14.9,46.5c5.4,13.4,15.8,39.9,21.1,71.1c5.7,33.8,5.7,73.1,0.6,107.5
		c-4.9,33.1-14.2,96.1-9.6,111.5c4.6,15.3,13.7,58.8,15.5,67.1c0.2,0.9,0.3,1.9,0.4,2.8C475.3,732.9,432.5,738.7,427,738.7z"/>
	<path class="st5" d="M454,483.1H329.7c-3.1,0-5.5-2.5-5.5-5.5l4.8-59c0-3.1,2.5-5.5,5.5-5.5l115.8,1.2c3.1,0,5.5,2.5,5.5,5.5
		l3.6,57.8C459.6,480.6,457.1,483.1,454,483.1z"/>
	<g class="st6">
		<path class="st7" d="M357.2,437.3L357.2,437.3L357.2,437.3c-0.8,0-1.6,0.3-2.6,0.8c-1,0.5-1.9,1.2-2.9,2c-0.6,0.5-1.3,1.1-1.9,1.8
			c-0.6,0.6-1.2,1.3-1.8,1.9c-0.4,0.5-0.8,0.9-1.2,1.3c-0.4,0.4-0.7,0.8-1,1.3c-0.5,0.6-0.9,1.2-1.3,1.8c-0.4,0.6-0.8,1.2-1.2,1.8
			c-0.9,1.6-1.7,3.1-2.3,4.6s-0.9,2.9-1,4.2c0,0.2,0,0.3,0,0.5c0,0.2,0,0.3,0,0.5c0,1.9,0.4,3.3,1.3,4.4s2.3,1.7,4.1,2.1
			c0.4,0.1,0.9,0.2,1.3,0.2c0.4,0,0.8,0.1,1.2,0.1c0.5,0,1,0,1.4-0.1c0.5-0.1,0.9-0.1,1.4-0.2c0.5-0.1,1-0.2,1.5-0.4s1-0.3,1.6-0.5
			c0.3-0.1,0.6-0.2,0.9-0.2s0.6-0.2,1-0.2c0.8-0.2,1.6-0.4,2.3-0.6c0.7-0.2,1.4-0.3,2-0.5c0.7-0.2,1.3-0.3,2-0.5
			c0.7-0.2,1.5-0.3,2.3-0.4c0.1,0,0.2,0,0.3-0.1c0.1,0,0.2,0,0.3-0.1c0.6-0.1,1.1-0.2,1.6-0.3c0.5-0.1,1-0.2,1.5-0.3
			c0.4-0.1,0.9-0.1,1.3-0.2c0.4,0,0.9-0.1,1.4-0.1c0.1,0,0.2,0,0.2,0c0.1,0,0.2,0,0.3,0c0.1,0,0.2,0,0.3,0c0.1,0,0.2,0,0.3,0
			c2.5,0.1,4.7,0.5,6.5,1.2c1.8,0.7,3.6,1.7,5.4,3c0.4,0.3,0.7,0.6,1.1,0.9c0.4,0.3,0.7,0.7,1.1,1c-0.6-0.5-1.3-0.9-2.2-1.2
			c-0.8-0.3-1.7-0.5-2.6-0.7c-0.5-0.1-0.9-0.1-1.4-0.2c-0.5,0-0.9,0-1.4,0c-0.3,0-0.6,0-0.9,0c-0.3,0-0.6,0-0.9,0.1
			c-0.5,0.1-1,0.2-1.4,0.4c-0.4,0.2-0.9,0.4-1.2,0.6c-0.4,0.2-0.7,0.4-0.9,0.6c-0.2,0.2-0.4,0.3-0.5,0.4c-0.2-0.2-0.5-0.4-0.8-0.7
			c-0.3-0.3-0.7-0.6-1.1-0.9c-0.6-0.4-1.3-0.7-2.2-1.1c-0.9-0.4-2-0.6-3.4-0.7c-0.2,0-0.3,0-0.5,0c-0.2,0-0.3,0-0.5,0
			c-1.3,0-2.6,0.2-3.9,0.5c-1.4,0.3-2.8,0.7-4.4,1c-0.3,0.1-0.6,0.2-0.8,0.2c-0.3,0.1-0.6,0.2-0.8,0.3c-1.5,0.4-2.9,0.8-4.3,1.2
			c-1.4,0.4-2.7,0.5-4.1,0.5c-0.1,0-0.3,0-0.4,0s-0.3,0-0.4,0c-0.2,0-0.3,0-0.4,0c-0.1,0-0.3,0-0.4-0.1c-0.5-0.1-1.2-0.2-1.9-0.3
			c-0.7-0.1-1.4-0.3-2.1-0.6c-1.4-0.5-2.7-1.4-3.9-2.8c-1.2-1.3-1.8-3.4-1.8-6.2c0-2.4,0.6-4.7,2-7s3-4.5,5-6.8
			c1.3-1.4,2.6-2.8,4-3.9c1.4-1.2,2.9-2.2,4.3-3.1c1.2-0.7,2.4-1.2,3.6-1.6c1.2-0.4,2.3-0.6,3.4-0.7h0h0c0.7,0,1.4,0.2,2,0.7
			c0.6,0.5,0.9,1.1,1,1.8c0,0,0,0.1,0,0.1s0,0.1,0,0.1s0,0.1,0,0.1s0,0.1,0,0.1c0,0.1,0,0.2,0,0.3c0,0.1,0,0.2,0,0.3
			c-0.1,0.8-0.5,1.6-1,2.3s-1.2,1-1.8,1c-0.1,0-0.1,0-0.2,0c-0.1,0-0.1,0-0.2,0c-0.4-0.1-0.6-0.2-0.8-0.4c-0.2-0.2-0.3-0.4-0.3-0.7
			c0-0.2,0-0.4,0.1-0.6c0.1-0.2,0.2-0.4,0.3-0.6c0.1-0.2,0.3-0.4,0.5-0.6c0.2-0.2,0.4-0.3,0.6-0.4c0.2-0.2,0.5-0.3,0.7-0.3
			c0.2-0.1,0.4-0.1,0.5-0.1h0h0c0,0,0-0.1,0-0.1s0-0.1,0-0.1c0,0,0-0.1,0-0.1s0-0.1,0-0.1c0-0.1,0-0.1,0-0.1c0,0,0-0.1,0-0.1
			c0-0.2-0.1-0.3-0.3-0.5C358,437.5,357.7,437.4,357.2,437.3L357.2,437.3z M376.9,460c-0.3-0.3-0.6-0.6-0.7-0.9
			c-0.1-0.2-0.1-0.5-0.2-0.7c0-0.2-0.1-0.4-0.1-0.5c0,0,0,0,0-0.1c0,0,0,0,0-0.1c0,0.1-0.1,0.2-0.3,0.5c-0.2,0.2-0.4,0.5-0.7,0.8
			c-0.4,0.3-0.8,0.6-1.3,0.9c-0.5,0.3-1.1,0.4-1.7,0.4c-0.9,0-1.6-0.2-1.9-0.7c-0.4-0.4-0.6-0.9-0.6-1.5c0-0.1,0-0.1,0-0.2
			s0-0.2,0-0.2c0-0.3,0-0.5,0.1-0.8s0.1-0.5,0.1-0.6c0-0.1,0.1-0.2,0.1-0.3c0-0.1,0.1-0.1,0.1-0.2c0,0.1-0.2,0.4-0.6,0.8
			c-0.4,0.4-0.9,0.9-1.5,1.4c-0.6,0.5-1.2,0.9-2,1.3c-0.7,0.4-1.5,0.7-2.2,0.8c-0.2,0-0.3,0-0.4,0.1c-0.1,0-0.3,0-0.4,0
			c0,0-0.1,0-0.1,0c0,0-0.1,0-0.1,0c0,0-0.1,0-0.1,0c-1.4-0.1-2.3-0.4-2.7-1s-0.7-1.4-0.8-2.3c0,0,0,0,0-0.1c0,0,0,0,0-0.1
			c0-0.3,0.1-0.7,0.2-1.2c0.1-0.5,0.3-1,0.4-1.6c0.1-0.2,0.1-0.4,0.2-0.6c0.1-0.2,0.2-0.4,0.2-0.6c0.2-0.5,0.4-1,0.5-1.4
			c0.2-0.4,0.3-0.6,0.4-0.7l-1.9,0.3c-0.1,0.2-0.3,0.6-0.6,1.2c-0.3,0.6-0.7,1.2-1.1,1.8c-0.1,0.2-0.3,0.4-0.4,0.6
			c-0.2,0.2-0.3,0.4-0.5,0.6c0,0.1-0.1,0.1-0.1,0.2c0,0.1-0.1,0.1-0.1,0.2c-1,1.2-2,2.3-3.1,3.2s-2.2,1.4-3.5,1.5c0,0-0.1,0-0.1,0
			c0,0,0,0-0.1,0c0,0,0,0-0.1,0c-0.2,0-0.3,0-0.5,0c-0.2,0-0.3-0.1-0.5-0.1c-0.5-0.2-1-0.4-1.4-0.8c-0.4-0.4-0.7-1-0.8-1.8
			c0-0.1,0-0.1,0-0.1c0,0,0-0.1,0-0.1c0-0.1,0-0.1,0-0.1c0,0,0-0.1,0-0.1c0-1,0.2-1.9,0.6-3c0.4-1,1.1-2.2,2-3.7
			c0.4-0.7,0.9-1.3,1.3-1.8c0.5-0.6,0.9-1.1,1.4-1.5c1.2-1.1,2.3-2,3.4-2.5c1.1-0.5,2-0.8,2.7-0.8c0.7,0,1.4,0.2,1.9,0.7
			c0.5,0.4,0.8,1.1,0.9,2c0,0,0,0.1,0,0.1s0,0.1,0,0.1c0,0.2,0,0.4,0,0.6c0,0.2-0.1,0.4-0.1,0.6c-0.1,0.2-0.1,0.5-0.2,0.7
			c-0.1,0.2-0.1,0.4-0.2,0.6c-0.1,0.3-0.2,0.5-0.3,0.7c-0.1,0.2-0.2,0.3-0.2,0.3c0.1,0,0.1,0,0.2,0c0.1,0,0.1,0,0.2,0
			c0.2,0,0.5,0,0.8-0.1s0.7-0.3,1.2-0.6c0.5-0.4,0.9-0.7,1.2-1c0.3-0.3,0.6-0.6,0.9-0.9c0.1,0,0.1-0.1,0.1-0.1c0,0,0.1-0.1,0.1-0.1
			c0.2-0.2,0.5-0.4,0.7-0.7c0.3-0.2,0.6-0.5,0.9-0.7c0.6-0.5,1.2-0.9,1.8-1.2s1.1-0.6,1.5-0.7c0.2-0.1,0.4-0.1,0.6-0.1s0.4,0,0.5,0
			c0.1,0,0.1,0,0.1,0c0,0,0.1,0,0.1,0c0.1,0,0.1,0,0.1,0s0.1,0,0.1,0c0.7,0.1,1.3,0.3,1.8,0.7s0.8,1,0.8,1.6c0,0,0,0,0,0.1
			c0,0,0,0,0,0.1c0,0.7-0.2,1.3-0.6,1.8c-0.3,0.5-0.7,1-1.1,1.3c-0.2,0.2-0.5,0.3-0.7,0.4c-0.2,0.1-0.4,0.2-0.6,0.2c0,0,0,0-0.1,0
			c0,0,0,0-0.1,0c-0.3-0.1-0.6-0.2-0.7-0.4c-0.2-0.2-0.2-0.5-0.2-0.7c0-0.1,0-0.2,0-0.2c0-0.1,0-0.1,0.1-0.2c0-0.2,0.1-0.3,0.1-0.5
			c0.1-0.2,0.1-0.3,0.2-0.4c0.1-0.2,0.3-0.3,0.4-0.5c0.2-0.1,0.3-0.2,0.5-0.3c0.3-0.2,0.6-0.3,0.8-0.4c0.3-0.1,0.4-0.1,0.6-0.1h0h0
			c0-0.1,0-0.1,0-0.1c0,0,0-0.1,0-0.1c0,0,0-0.1,0-0.1c-0.1-0.1-0.1-0.2-0.3-0.2c-0.1-0.1-0.4-0.1-0.8-0.1c-0.3,0-0.7,0.2-1.2,0.5
			c-0.5,0.3-1,0.8-1.5,1.3c-0.3,0.4-0.7,0.7-1,1.1c-0.3,0.4-0.6,0.8-0.9,1.3c-0.1,0.1-0.1,0.2-0.2,0.3c-0.1,0.1-0.1,0.2-0.2,0.3
			c-0.2,0.4-0.5,0.8-0.7,1.3c-0.2,0.5-0.4,0.9-0.7,1.4c-0.3,0.7-0.5,1.4-0.7,2c-0.2,0.6-0.3,1.2-0.3,1.6c0,0.2,0,0.4,0.1,0.5
			c0.1,0.2,0.1,0.3,0.2,0.3c0.1,0,0.1,0.1,0.2,0.1c0.1,0,0.1,0,0.3,0c0.4,0,0.8-0.1,1.4-0.4s1.1-0.6,1.7-1c0.5-0.3,1-0.7,1.5-1.1
			c0.5-0.4,0.9-0.8,1.3-1.3c1.3-1.6,2.5-3.1,3.5-4.5c1-1.4,1.9-2.5,2.8-3.4c0.2-0.2,0.4-0.4,0.7-0.6c0.2-0.2,0.4-0.4,0.7-0.5
			c0.2-0.2,0.4-0.3,0.6-0.4c0.2-0.1,0.4-0.2,0.5-0.3c0.4-0.2,0.8-0.4,1.2-0.4s0.8-0.1,1.3-0.1c0.6,0,1,0.1,1.3,0.2
			c0.3,0.1,0.5,0.2,0.7,0.3c0.1,0.1,0.2,0.2,0.3,0.2c0.1,0.1,0.1,0.1,0.2,0.2l0,0c0-0.1,0-0.1,0.1-0.2c0-0.1,0.1-0.2,0.1-0.2
			c0,0,0-0.1,0.1-0.1c0,0,0-0.1,0.1-0.1c0-0.1,0.1-0.1,0.1-0.2c0-0.1,0.1-0.1,0.1-0.1c0.1-0.1,0.2-0.1,0.5-0.1s0.6,0,1,0
			c0,0,0.1,0,0.1,0s0.1,0,0.1,0c0.4,0,0.8,0,1.2,0s0.6,0.1,0.6,0.1c0.1,0.1-0.3,0.7-1,1.8c-0.7,1.2-1.5,2.5-2.3,3.9
			c-0.1,0.1-0.1,0.2-0.2,0.3c-0.1,0.1-0.1,0.2-0.2,0.3c-0.8,1.3-1.5,2.6-2.1,3.8c-0.6,1.2-0.9,1.9-0.9,2.3c0,0,0,0.1,0,0.1
			c0,0,0,0.1,0.1,0.1c0.1,0,0.1,0,0.2,0.1c0.1,0,0.1,0,0.2,0c0.3,0,0.6-0.1,0.9-0.3c0.3-0.2,0.7-0.5,1-0.9c0.1-0.1,0.3-0.3,0.4-0.4
			c0.1-0.2,0.3-0.3,0.4-0.5c0.1-0.2,0.2-0.3,0.3-0.5c0.1-0.2,0.2-0.4,0.3-0.5c0-0.1,0.1-0.1,0.1-0.2s0.1-0.1,0.1-0.2
			c0.2-0.4,0.4-0.7,0.6-0.9c0.2-0.2,0.4-0.3,0.7-0.2c0.3,0.1,0.2,0.6-0.3,1.4s-1,1.8-1.8,2.7c-0.4,0.6-0.9,1.2-1.4,1.7
			c-0.5,0.5-1.1,1-1.6,1.4c-0.4,0.3-0.9,0.6-1.3,0.8c-0.4,0.2-0.8,0.3-1.2,0.3C377.8,460.4,377.3,460.3,376.9,460z M351.8,452.6
			c0,0.1-0.1,0.2-0.1,0.2c0,0.1-0.1,0.1-0.1,0.2c-0.1,0.2-0.2,0.4-0.3,0.6c-0.1,0.2-0.2,0.4-0.3,0.6c-0.2,0.4-0.3,0.7-0.4,1.1
			c-0.1,0.3-0.1,0.6-0.1,0.9c0,0.2,0,0.3,0.1,0.5c0.1,0.1,0.1,0.2,0.3,0.3c0.1,0,0.2,0.1,0.2,0.1c0.1,0,0.2,0,0.3,0
			c0.3,0,0.6-0.1,1-0.2c0.4-0.2,0.7-0.4,1.1-0.6c0.3-0.2,0.6-0.4,0.8-0.7c0.3-0.2,0.5-0.5,0.7-0.8c0.1-0.1,0.3-0.3,0.4-0.6
			c0.2-0.3,0.4-0.6,0.6-0.9c0-0.1,0.1-0.1,0.1-0.2s0.1-0.1,0.1-0.2c0.2-0.3,0.4-0.7,0.6-1s0.3-0.6,0.3-0.7c-0.3,0-0.5-0.1-0.7-0.1
			c-0.2,0-0.4-0.1-0.6-0.2c-0.1,0-0.2-0.1-0.3-0.1c-0.1-0.1-0.2-0.1-0.3-0.2c-0.4-0.2-0.6-0.5-0.9-0.7c-0.2-0.3-0.4-0.6-0.6-1
			c-0.2,0.2-0.4,0.5-0.5,0.7c-0.2,0.2-0.3,0.5-0.4,0.7c-0.1,0.2-0.2,0.3-0.3,0.5c-0.1,0.2-0.2,0.3-0.2,0.5c-0.1,0.2-0.2,0.5-0.3,0.7
			C352,452.1,351.9,452.4,351.8,452.6L351.8,452.6z M357.7,450.2c0.1,0,0.1,0,0.2-0.1c0.1-0.1,0.1-0.2,0.2-0.2
			c0.1-0.2,0.3-0.5,0.4-0.8c0.1-0.3,0.2-0.7,0.3-1c0-0.2,0-0.3,0.1-0.5c0-0.2,0-0.3,0-0.5c0,0,0,0,0-0.1c0,0,0,0,0-0.1
			c0-0.4-0.1-0.7-0.2-0.8c-0.1-0.2-0.3-0.3-0.4-0.4c-0.1,0-0.1,0-0.2-0.1c-0.1,0-0.1,0-0.2,0c0,0,0,0-0.1,0c0,0,0,0-0.1,0
			c-0.1,0-0.3,0-0.4,0.1c-0.1,0-0.3,0.1-0.4,0.1c-0.3,0.1-0.6,0.3-0.8,0.5c-0.3,0.2-0.5,0.5-0.7,0.7c-0.1,0.2-0.2,0.3-0.3,0.5
			c-0.1,0.2-0.1,0.3-0.2,0.4v0c0,0.1,0,0.3,0.1,0.5c0.1,0.2,0.2,0.4,0.4,0.5c0.2,0.3,0.5,0.6,0.9,0.8c0.3,0.2,0.7,0.4,1.1,0.4
			c0,0,0,0,0.1,0c0,0,0,0,0.1,0c0,0,0.1,0,0.1,0c0,0,0.1,0,0.1,0C357.6,450.2,357.6,450.2,357.7,450.2
			C357.6,450.2,357.7,450.2,357.7,450.2L357.7,450.2z M380.4,446c-0.1,0.1-0.1,0.1-0.2,0.2c-0.1,0.1-0.1,0.1-0.2,0.2
			c-0.4,0.3-0.8,0.7-1.3,1.3c-0.5,0.6-1.2,1.5-2.2,2.8c-0.2,0.3-0.4,0.6-0.6,0.9c-0.2,0.3-0.4,0.6-0.6,0.9c-0.4,0.7-0.6,1.4-0.9,2.1
			c-0.2,0.7-0.3,1.2-0.3,1.7c0,0.2,0,0.3,0.1,0.5c0,0.1,0.1,0.2,0.2,0.3c0.1,0,0.1,0.1,0.1,0.1s0.1,0,0.1,0c0,0,0.1,0,0.1,0
			c0.1,0,0.1,0,0.1,0c0.3,0,0.7-0.1,1-0.4c0.3-0.3,0.6-0.6,0.9-1c0.1-0.1,0.1-0.2,0.2-0.3c0.1-0.1,0.1-0.2,0.2-0.2
			c1-1.5,1.9-3,2.7-4.4c0.8-1.4,1.7-2.8,2.4-4.1c0.1-0.1,0.1-0.2,0.2-0.3c0-0.1,0.1-0.2,0.1-0.2c0-0.1,0-0.2-0.1-0.2
			c-0.1-0.1-0.1-0.1-0.2-0.2c0,0,0,0-0.1,0c0,0,0,0-0.1,0c-0.1,0-0.1,0-0.2-0.1c-0.1,0-0.1,0-0.2,0c-0.2,0-0.4,0-0.6,0.1
			C381,445.7,380.7,445.9,380.4,446L380.4,446z M420.4,435.7c0.8,0,1.5,0.1,2,0.2c0.5,0.1,1.1,0.2,1.6,0.4c0.3,0.1,0.6,0.3,0.9,0.4
			c0.3,0.2,0.7,0.3,1,0.5c0.2,0.1,0.5,0.3,0.7,0.4c0.2,0.1,0.5,0.3,0.8,0.4c0.1,0.1,0.2,0.1,0.2,0.1c0.1,0,0.2,0.1,0.2,0.1
			c0.7,0.4,1.4,0.8,2,1.2c0.6,0.4,1,0.6,1.1,0.7l-2.8,3c-0.3-0.2-0.7-0.4-1-0.5c-0.3-0.2-0.6-0.4-0.9-0.5c-0.1-0.1-0.2-0.1-0.3-0.2
			c-0.1-0.1-0.2-0.1-0.3-0.2c-0.2-0.1-0.5-0.3-0.7-0.4c-0.3-0.1-0.5-0.3-0.8-0.4c-0.5-0.3-1-0.5-1.5-0.8c-0.4-0.2-0.9-0.5-1.3-0.7
			c-0.5-0.3-1.1-0.5-1.7-0.8s-1.3-0.4-2-0.5c-0.1,0-0.2,0-0.3-0.1c-0.1,0-0.2,0-0.3,0c-0.2,0-0.3,0-0.5,0c-0.1,0-0.3,0.1-0.4,0.1
			c0,0-0.1,0-0.1,0c-0.1,0-0.1,0-0.2,0c-0.1,0-0.1,0-0.2,0c0,0.1,0.1,0.1,0.1,0.2c0,0.1,0.1,0.2,0.1,0.3c0,0.2,0.1,0.4,0.1,0.6
			c0,0.2,0.1,0.5,0.1,0.8c0,0.4,0,0.7-0.1,1.1c-0.1,0.3-0.1,0.6-0.2,0.9c-0.1,0.3-0.2,0.5-0.3,0.8s-0.2,0.5-0.3,0.8
			c-0.5,1.1-1.1,2.1-1.9,2.9c-0.8,0.8-1.6,1.5-2.4,1.9c-0.4,0.2-0.9,0.4-1.3,0.5c-0.4,0.1-0.8,0.2-1.2,0.2c-0.3,0-0.6,0-0.8-0.1
			c-0.3-0.1-0.5-0.2-0.7-0.3c-0.3-0.2-0.5-0.4-0.6-0.7c-0.1-0.3-0.2-0.6-0.2-0.9c0-0.4,0.1-0.7,0.2-1.1c0.1-0.4,0.2-0.8,0.4-1.2
			c0.2-0.4,0.3-0.8,0.5-1.2c0.2-0.4,0.4-0.8,0.6-1.1c0.3-0.5,0.7-1.1,1.2-1.6c0.5-0.5,0.9-1,1.4-1.4c0.6-0.6,1.3-1,1.8-1.4
			s1-0.6,1.3-0.7c-0.1,0-0.1-0.1-0.1-0.1c0,0-0.1-0.1-0.1-0.1c-0.1-0.1-0.2-0.1-0.3-0.1c-0.1,0-0.2-0.1-0.4-0.1c-0.1,0-0.1,0-0.2,0
			s-0.2,0-0.2,0c-0.5,0.1-1.1,0.3-1.8,0.6c-0.7,0.3-1.3,0.6-2.1,1.1c-0.3,0.2-0.6,0.4-1,0.7c-0.3,0.2-0.7,0.5-1,0.7
			c-0.7,0.6-1.4,1.2-2,1.8c-0.6,0.6-1.2,1.2-1.7,1.7c-0.6,0.7-1.2,1.3-1.7,2c-0.5,0.7-1.1,1.4-1.6,2.2c-0.4,0.5-0.8,1.1-1.2,1.7
			c-0.4,0.6-0.8,1.3-1.2,1.9c-0.4,0.7-0.8,1.4-1.2,2s-0.6,1.3-0.8,1.9c-0.3,0.9-0.6,1.8-0.8,2.7c-0.2,0.9-0.3,1.9-0.3,3
			c0,1.2,0.2,2.2,0.6,2.9c0.4,0.8,1,1.3,2,1.4c0.1,0,0.3,0,0.4,0.1c0.1,0,0.3,0,0.4,0c1.2,0,2.4-0.4,3.5-1.1
			c1.1-0.8,2.1-1.7,2.9-2.8c0-0.1,0.1-0.1,0.1-0.2c0-0.1,0.1-0.1,0.1-0.2c0.3-0.4,0.6-0.9,0.9-1.4c0.3-0.5,0.5-1,0.8-1.6
			c0.2-0.6,0.4-1.1,0.6-1.7s0.2-1,0.2-1.5c0-0.4-0.1-0.8-0.2-1c-0.1-0.3-0.4-0.4-0.8-0.5c0,0-0.1,0-0.1,0s0,0,0,0c0,0-0.1,0-0.1,0
			c0,0-0.1,0-0.1,0c-0.5,0-0.9,0.2-1.2,0.5s-0.7,0.7-1,1.1c0,0,0,0,0,0c0,0,0,0,0,0c0,0.1-0.1,0.1-0.1,0.1c0,0-0.1,0.1-0.1,0.1
			c-0.2,0.2-0.3,0.4-0.4,0.7c-0.1,0.3-0.2,0.5-0.3,0.8c-0.2,0.5-0.3,0.9-0.3,1.3c-0.1,0.4-0.1,0.6-0.2,0.7c-0.2,0.1-0.4,0.2-0.6,0.2
			c-0.2,0.1-0.3,0.1-0.4,0.2c-0.1,0-0.1,0.1-0.2,0.1c-0.1,0-0.1,0.1-0.1,0.1c-0.1,0.1-0.2,0.1-0.3,0.2c-0.1,0.1-0.2,0.1-0.3,0.2
			c-0.1,0.1-0.2,0.1-0.3,0.2c-0.1,0.1-0.2,0.1-0.3,0.2c-0.1,0.1-0.2,0.1-0.2,0.2c-0.1,0.1-0.2,0.1-0.2,0.2c-0.3,0.3-0.6,0.5-0.8,0.8
			c-0.2,0.2-0.4,0.3-0.5,0.3c0,0,0-0.1-0.1-0.2c0-0.1,0-0.3,0-0.4c0-0.4,0-1,0.1-1.7c0.1-0.7,0.3-1.4,0.5-2.2c0.2-0.5,0.3-1,0.6-1.4
			c0.2-0.5,0.5-0.9,0.8-1.3c0.7-0.8,1.5-1.5,2.4-2c0.9-0.5,1.8-0.7,2.8-0.7c0.2,0,0.4,0,0.6,0c0.2,0,0.3,0,0.5,0.1
			c0.8,0.2,1.4,0.5,1.8,1.1c0.3,0.5,0.5,1.2,0.5,1.9c0,0.6-0.1,1.2-0.2,1.8c-0.2,0.6-0.4,1.3-0.7,1.9c-0.3,0.6-0.5,1.3-0.9,1.9
			s-0.6,1.2-1,1.7c-1.2,1.8-2.6,3.3-4.2,4.5c-1.6,1.1-3.3,1.7-5.1,1.7c-0.1,0-0.3,0-0.4,0s-0.3,0-0.4,0c-1.8-0.2-3.3-0.7-4.5-1.4
			c-1.2-0.8-1.8-2.3-1.8-4.5c0-0.4,0-0.9,0.1-1.4c0.1-0.5,0.1-1,0.2-1.6c0.4-2.1,1.1-4,1.9-5.8s1.8-3.4,2.8-4.9
			c0.5-0.8,1-1.5,1.5-2.1c0.5-0.6,1-1.2,1.4-1.7c0.3-0.4,0.6-0.7,1-1.1c0.3-0.4,0.7-0.7,1.1-1.1c1.8-1.7,3.8-3.3,6.2-4.8
			c2.4-1.5,4.9-2.3,7.5-2.5c0,0,0,0,0.1,0c0,0,0,0,0.1,0s0.1,0,0.1,0c0.3,0,0.6,0,0.9,0.1c0.3,0.1,0.5,0.2,0.8,0.3
			c0.2,0.1,0.3,0.2,0.5,0.3s0.3,0.2,0.5,0.3c0.1,0,0.1,0.1,0.2,0.1c0.1,0,0.1,0.1,0.2,0.1c0.4-0.2,0.8-0.3,1.1-0.5s0.7-0.2,1-0.3
			c0.5-0.1,0.9-0.2,1.4-0.3C419.2,435.8,419.8,435.7,420.4,435.7L420.4,435.7z M393.7,443.9c0.1,0.1,0,0.3-0.2,0.6
			c-0.2,0.4-0.4,0.7-0.6,1.2c0,0.1-0.1,0.1-0.1,0.1c0,0-0.1,0.1-0.1,0.1c-0.2,0.4-0.4,0.7-0.6,1c-0.2,0.3-0.3,0.5-0.3,0.5
			c0,0-0.2,0.1-0.5,0.1c-0.3,0-0.7,0.1-1.1,0.1c-0.1,0-0.1,0-0.2,0c-0.1,0-0.1,0-0.2,0c-0.3,0-0.6,0-0.8,0c-0.2,0-0.4-0.1-0.4-0.1
			c-0.1-0.1,0-0.3,0.2-0.6c0.2-0.3,0.3-0.7,0.6-1.1c0-0.1,0.1-0.1,0.1-0.2c0-0.1,0.1-0.1,0.1-0.2c0.2-0.3,0.4-0.6,0.6-0.9
			c0.2-0.3,0.3-0.4,0.4-0.4c0.1,0,0.2-0.1,0.5-0.1c0.3,0,0.6,0,1,0c0,0,0,0,0.1,0c0,0,0,0,0.1,0c0.4,0,0.7,0,1.1,0
			C393.5,443.8,393.7,443.8,393.7,443.9L393.7,443.9z M428.9,448.6c-0.4,0.7-0.8,1.3-1.1,1.8c-0.3,0.6-0.6,1.1-0.9,1.6
			c-0.2,0.4-0.4,0.8-0.6,1.2c-0.2,0.4-0.4,0.8-0.6,1.3c-0.1,0.3-0.3,0.6-0.4,0.9c-0.1,0.3-0.3,0.6-0.4,1c0.7-0.5,1.5-1,2.4-1.8
			s1.9-1.5,2.9-2.5c0.2-0.2,0.3-0.3,0.4-0.5c0.1-0.2,0.3-0.3,0.4-0.5c0.5-0.5,0.9-0.9,1.2-1.3c0.4-0.4,0.7-0.8,1-1.1
			c0.1-0.2,0.3-0.3,0.4-0.4c0.1-0.1,0.2-0.3,0.4-0.4c0.3-0.3,0.5-0.6,0.8-1c0.3-0.4,0.6-0.8,0.9-1.3l1.5-0.3c-0.3,0.5-0.6,1-0.9,1.4
			c-0.3,0.4-0.6,0.8-0.8,1.2c-0.2,0.2-0.4,0.5-0.5,0.7c-0.2,0.2-0.4,0.5-0.6,0.7c-0.3,0.4-0.7,0.8-1.1,1.2c-0.4,0.4-0.8,0.9-1.3,1.3
			c-0.5,0.5-1,1-1.4,1.4c-0.5,0.4-0.9,0.8-1.3,1.2c-0.4,0.3-0.7,0.6-1.1,0.9c-0.3,0.3-0.7,0.6-1.1,0.8c-0.4,0.3-0.8,0.6-1.3,0.9
			c-0.4,0.3-0.9,0.6-1.4,0.9c0,0-0.1,0.2-0.3,0.6c-0.2,0.4-0.4,0.9-0.7,1.5c-0.1,0.2-0.2,0.5-0.3,0.7s-0.2,0.5-0.2,0.7
			c-0.2,0.5-0.3,0.9-0.4,1.3c-0.1,0.4-0.1,0.8-0.1,1.1c0,0.3,0,0.5,0.1,0.7c0.1,0.2,0.2,0.3,0.4,0.3c0.1,0,0.1,0,0.1,0
			c0,0,0.1,0,0.1,0c0.2,0,0.5-0.1,0.7-0.2c0.3-0.2,0.5-0.3,0.8-0.6c0.2-0.2,0.4-0.4,0.6-0.6c0.2-0.2,0.4-0.4,0.6-0.7
			c0.1-0.1,0.2-0.3,0.3-0.4s0.2-0.2,0.3-0.4c1.3-1.6,2.5-3.1,3.5-4.5c1-1.4,1.9-2.5,2.8-3.4c0.2-0.2,0.4-0.4,0.7-0.6
			c0.2-0.2,0.4-0.4,0.7-0.5c0.2-0.2,0.4-0.3,0.6-0.4c0.2-0.1,0.4-0.2,0.5-0.3c0.4-0.2,0.8-0.4,1.2-0.4c0.4-0.1,0.8-0.1,1.3-0.1
			c0.6,0,1,0.1,1.3,0.2c0.3,0.1,0.5,0.2,0.7,0.3c0.1,0.1,0.2,0.2,0.2,0.2c0.1,0.1,0.1,0.1,0.2,0.2l0,0c0-0.1,0-0.1,0.1-0.2
			c0-0.1,0.1-0.2,0.1-0.2c0,0,0-0.1,0.1-0.1c0,0,0-0.1,0.1-0.1c0-0.1,0.1-0.1,0.1-0.2c0-0.1,0.1-0.1,0.1-0.1
			c0.1-0.1,0.2-0.1,0.5-0.1c0.3,0,0.6,0,1,0c0,0,0.1,0,0.1,0c0,0,0.1,0,0.1,0c0.4,0,0.8,0,1.2,0c0.4,0,0.6,0.1,0.6,0.1
			c0.1,0.1-0.3,0.7-1,1.8c-0.7,1.2-1.5,2.5-2.3,3.9c-0.1,0.1-0.1,0.2-0.2,0.3c-0.1,0.1-0.1,0.2-0.2,0.3c-0.8,1.3-1.5,2.6-2.1,3.8
			c-0.6,1.2-0.9,1.9-0.9,2.3c0,0,0,0.1,0,0.1c0,0,0,0.1,0.1,0.1c0.1,0,0.1,0,0.2,0.1c0.1,0,0.1,0,0.2,0c0.3,0,0.6-0.1,0.9-0.3
			c0.3-0.2,0.7-0.5,1-0.9c0.1-0.1,0.3-0.3,0.4-0.4c0.1-0.2,0.3-0.3,0.4-0.5c0.1-0.2,0.2-0.3,0.3-0.5c0.1-0.2,0.2-0.4,0.3-0.5
			c0-0.1,0.1-0.1,0.1-0.2c0-0.1,0.1-0.1,0.1-0.2c0.2-0.4,0.4-0.7,0.6-0.9c0.2-0.2,0.4-0.3,0.7-0.2c0.3,0.1,0.2,0.6-0.2,1.4
			c-0.4,0.8-1,1.8-1.8,2.8c-0.4,0.6-0.9,1.1-1.4,1.6c-0.5,0.5-1.1,1-1.6,1.4c-0.4,0.3-0.9,0.6-1.3,0.8c-0.4,0.2-0.8,0.3-1.2,0.3
			c-0.7,0-1.2-0.1-1.5-0.4s-0.6-0.6-0.7-0.9c-0.1-0.2-0.1-0.4-0.2-0.7c0-0.2-0.1-0.4-0.1-0.5c0,0,0,0,0-0.1c0,0,0,0,0-0.1
			c0,0.1-0.1,0.2-0.3,0.5c-0.2,0.2-0.4,0.5-0.7,0.8c-0.4,0.3-0.8,0.6-1.3,0.9c-0.5,0.3-1.1,0.4-1.7,0.4c-0.9,0-1.6-0.2-1.9-0.7
			c-0.4-0.5-0.6-0.9-0.6-1.5c0-0.1,0-0.1,0-0.2c0-0.1,0-0.1,0-0.2c0-0.3,0-0.5,0.1-0.8c0-0.2,0.1-0.5,0.1-0.6c0-0.1,0.1-0.2,0.1-0.3
			c0-0.1,0.1-0.1,0.1-0.2c0,0.1-0.2,0.4-0.6,0.8c-0.4,0.4-0.8,0.9-1.4,1.4c-0.2,0.2-0.4,0.3-0.6,0.5c-0.2,0.2-0.4,0.3-0.6,0.5
			c-0.4,0.4-0.9,0.7-1.3,0.9c-0.4,0.2-0.8,0.3-1.1,0.3c-0.7,0-1.3-0.3-1.8-0.8c-0.5-0.5-0.7-1.2-0.7-1.8c0-0.3,0-0.8,0.1-1.3
			s0.2-1.1,0.3-1.7c0.1-0.3,0.1-0.6,0.2-0.8s0.1-0.5,0.2-0.7c0.1-0.5,0.3-1,0.4-1.4c0.1-0.4,0.2-0.6,0.3-0.7l-1.5,0.2
			c-0.1,0.2-0.3,0.6-0.6,1.2c-0.3,0.6-0.7,1.2-1.2,1.8c-0.1,0.2-0.3,0.4-0.4,0.6c-0.1,0.2-0.3,0.4-0.4,0.6c0,0.1-0.1,0.1-0.1,0.2
			c0,0.1-0.1,0.1-0.1,0.2c-1,1.2-2,2.3-3.1,3.2c-1.1,0.9-2.2,1.4-3.5,1.5c0,0-0.1,0-0.1,0s0,0-0.1,0s0,0-0.1,0c-0.2,0-0.3,0-0.5,0
			c-0.2,0-0.3-0.1-0.5-0.1c-0.5-0.2-1-0.4-1.4-0.8c-0.4-0.4-0.7-1-0.8-1.7c0-0.1,0-0.1,0-0.1c0,0,0-0.1,0-0.1c0-0.1,0-0.1,0-0.1
			c0,0,0-0.1,0-0.1c0-0.9,0.2-1.9,0.6-3c0.4-1,1.1-2.2,2-3.7c0.4-0.7,0.9-1.3,1.3-1.8c0.5-0.6,0.9-1.1,1.4-1.5
			c1.2-1.1,2.3-2,3.4-2.5s2-0.8,2.7-0.8c0.7,0,1.4,0.2,1.9,0.7c0.5,0.4,0.8,1.1,0.9,2c0,0,0,0.1,0,0.1s0,0.1,0,0.1
			c0,0.2,0,0.3,0,0.5c0,0.2-0.1,0.4-0.1,0.5c-0.1,0.2-0.1,0.5-0.2,0.7c-0.1,0.2-0.1,0.4-0.2,0.6c-0.1,0.3-0.2,0.5-0.3,0.7
			c-0.1,0.2-0.1,0.3-0.2,0.3l1.3-0.3c0.3-0.7,0.5-1.3,0.7-1.8c0.2-0.5,0.4-1,0.6-1.4c0.1-0.3,0.2-0.5,0.3-0.7
			c0.1-0.2,0.2-0.4,0.3-0.7c0.3-0.5,0.5-1,0.8-1.5s0.6-1.1,1-1.7c0.4-0.7,0.9-1.4,1.4-2.1c0.5-0.7,1.1-1.5,1.7-2.2
			c0.5-0.6,0.9-1.1,1.4-1.7s1-1.1,1.5-1.7c0.9-1.1,1.9-2,2.8-2.9c0.9-0.9,1.8-1.5,2.4-2c1-0.7,1.9-1.1,2.5-1.3s1.2-0.3,1.7-0.3
			c0.2,0,0.4,0,0.6,0c0.2,0,0.4,0,0.5,0.1c0.4,0.1,0.6,0.2,0.8,0.5c0.2,0.3,0.3,0.6,0.3,0.9c0,0,0,0.1,0,0.1c0,0,0,0.1,0,0.1
			c0,0.2,0,0.3,0,0.5s-0.1,0.3-0.1,0.5c-0.1,0.2-0.1,0.4-0.2,0.6c-0.1,0.2-0.2,0.4-0.2,0.6c-0.1,0.2-0.2,0.4-0.3,0.5
			c-0.1,0.1-0.1,0.2-0.2,0.2l-1.4,0.3c0.1-0.1,0.1-0.1,0.2-0.3c0.1-0.1,0.2-0.3,0.3-0.5c0.1-0.2,0.2-0.3,0.2-0.5
			c0.1-0.2,0.1-0.3,0.2-0.5c0.1-0.2,0.1-0.4,0.2-0.5c0-0.2,0.1-0.3,0.1-0.5c0-0.2,0-0.4-0.1-0.5c-0.1-0.1-0.2-0.2-0.4-0.3
			c0,0-0.1,0-0.1,0c0,0-0.1,0-0.1,0c0,0-0.1,0-0.1,0c-0.7,0-1.7,0.6-3,1.8c-1.3,1.2-2.6,2.7-4,4.5c-0.6,0.8-1.2,1.6-1.8,2.5
			C430,446.9,429.5,447.8,428.9,448.6L428.9,448.6z M414.2,438.8c-0.3,0.1-0.7,0.3-1.1,0.6c-0.4,0.2-0.9,0.5-1.3,0.9
			c-0.4,0.3-0.8,0.7-1.2,1.1c-0.4,0.4-0.8,0.8-1.1,1.3c-0.1,0.1-0.1,0.2-0.2,0.3c-0.1,0.1-0.1,0.2-0.2,0.3c-0.1,0.2-0.2,0.4-0.4,0.6
			c-0.1,0.2-0.2,0.4-0.4,0.7c-0.2,0.4-0.4,0.9-0.6,1.3s-0.2,0.8-0.2,1.2c0,0.2,0,0.3,0.1,0.4c0.1,0.1,0.1,0.2,0.2,0.3
			c0.1,0.1,0.3,0.2,0.4,0.2c0.1,0,0.3,0.1,0.4,0.1c0.3,0,0.5-0.1,0.8-0.2c0.3-0.1,0.6-0.3,0.9-0.5c0.4-0.3,0.8-0.6,1.2-1
			c0.4-0.4,0.8-0.8,1.1-1.2c0.1-0.1,0.1-0.2,0.2-0.2c0.1-0.1,0.1-0.2,0.2-0.2c0.6-1,1-1.8,1.2-2.5c0.2-0.7,0.3-1.3,0.3-1.8
			c0-0.3,0-0.6,0-0.8C414.3,439.3,414.3,439,414.2,438.8L414.2,438.8z M411.3,460.7c0,0.1-0.1,0.2-0.1,0.2s-0.1,0.1-0.1,0.2
			c-0.1,0.2-0.2,0.4-0.2,0.6c-0.1,0.2-0.2,0.4-0.3,0.6c-0.2,0.4-0.3,0.7-0.4,1.1c-0.1,0.3-0.1,0.6-0.1,0.9c0,0.2,0,0.3,0.1,0.5
			c0.1,0.1,0.1,0.2,0.3,0.3c0.1,0,0.2,0.1,0.2,0.1s0.2,0,0.3,0c0.3,0,0.6-0.1,1-0.2c0.4-0.2,0.7-0.4,1.1-0.6
			c0.3-0.2,0.6-0.4,0.8-0.7c0.3-0.2,0.5-0.5,0.7-0.8c0.1-0.1,0.3-0.3,0.4-0.6c0.2-0.3,0.4-0.6,0.6-0.9c0-0.1,0.1-0.1,0.1-0.2
			c0-0.1,0.1-0.1,0.1-0.2c0.2-0.3,0.4-0.7,0.6-1c0.2-0.3,0.3-0.6,0.3-0.7c-0.3,0-0.5-0.1-0.7-0.1c-0.2,0-0.4-0.1-0.6-0.2
			c-0.1,0-0.2-0.1-0.3-0.1c-0.1-0.1-0.2-0.1-0.3-0.2c-0.4-0.2-0.6-0.5-0.9-0.7c-0.2-0.3-0.4-0.6-0.6-1c-0.2,0.2-0.4,0.5-0.5,0.7
			c-0.2,0.2-0.3,0.4-0.4,0.7c-0.1,0.2-0.2,0.3-0.3,0.5c-0.1,0.2-0.2,0.3-0.2,0.5c-0.1,0.2-0.2,0.5-0.3,0.7
			C411.5,460.3,411.4,460.5,411.3,460.7L411.3,460.7z M417.2,458.4c0.1,0,0.1,0,0.2-0.1c0.1-0.1,0.1-0.2,0.2-0.2
			c0.1-0.2,0.2-0.5,0.4-0.8c0.1-0.3,0.2-0.7,0.3-1c0-0.2,0-0.3,0.1-0.5c0-0.2,0-0.3,0-0.5c0,0,0,0,0-0.1c0,0,0,0,0-0.1
			c0-0.4-0.1-0.7-0.2-0.8c-0.1-0.2-0.3-0.3-0.4-0.4c-0.1,0-0.1,0-0.2-0.1c-0.1,0-0.1,0-0.2,0c0,0,0,0-0.1,0s0,0-0.1,0
			c-0.1,0-0.3,0-0.4,0.1c-0.1,0-0.3,0.1-0.4,0.1c-0.3,0.1-0.6,0.3-0.8,0.5c-0.3,0.2-0.5,0.5-0.7,0.7c-0.1,0.2-0.2,0.3-0.3,0.5
			s-0.1,0.3-0.2,0.4v0c0,0.1,0,0.3,0.1,0.5s0.2,0.4,0.4,0.5c0.2,0.3,0.5,0.6,0.9,0.8s0.7,0.4,1.1,0.4c0,0,0,0,0.1,0s0,0,0.1,0
			c0,0,0.1,0,0.1,0s0.1,0,0.1,0C417.1,458.4,417.1,458.4,417.2,458.4C417.1,458.4,417.2,458.4,417.2,458.4L417.2,458.4z
			 M437.1,454.2c-0.1,0.1-0.1,0.1-0.2,0.2c-0.1,0.1-0.1,0.1-0.2,0.2c-0.4,0.3-0.8,0.7-1.3,1.3c-0.5,0.6-1.2,1.5-2.2,2.8
			c-0.2,0.3-0.4,0.6-0.6,0.9c-0.2,0.3-0.4,0.6-0.6,0.9c-0.4,0.7-0.6,1.4-0.9,2.1c-0.2,0.7-0.3,1.2-0.3,1.7c0,0.2,0,0.3,0.1,0.5
			c0,0.1,0.1,0.2,0.2,0.3c0.1,0,0.1,0.1,0.1,0.1c0,0,0.1,0,0.1,0c0,0,0.1,0,0.1,0c0.1,0,0.1,0,0.1,0c0.3,0,0.7-0.1,1-0.4
			c0.3-0.3,0.6-0.6,0.9-1c0.1-0.1,0.1-0.2,0.2-0.3c0.1-0.1,0.1-0.2,0.2-0.2c1-1.5,1.9-3,2.7-4.4s1.7-2.8,2.4-4.1
			c0.1-0.1,0.1-0.2,0.2-0.3c0-0.1,0.1-0.2,0.1-0.2c0-0.1,0-0.2-0.1-0.2c-0.1-0.1-0.1-0.1-0.2-0.2c0,0,0,0-0.1,0c0,0,0,0-0.1,0
			c-0.1,0-0.1,0-0.2-0.1c-0.1,0-0.1,0-0.2,0c-0.2,0-0.4,0-0.6,0.1C437.6,453.9,437.4,454,437.1,454.2L437.1,454.2z M441.4,440.5
			c0.5-0.2,1-0.4,1.4-0.6c0.4-0.2,0.8-0.4,1.2-0.6c1.5-0.9,2.6-1.7,3.1-2.5c0.5-0.7,1-1.1,1.3-1c0,0,0.1,0,0.1,0
			c0.3,0.1,0.2,0.6-0.4,1.5c-0.6,0.9-1.4,1.8-2.5,2.9c-0.7,0.6-1.5,1.3-2.3,1.9c-0.8,0.6-1.7,1.1-2.6,1.5c-0.6,0.3-1.2,0.5-1.7,0.7
			c-0.5,0.2-1,0.4-1.6,0.5c-0.4,0.1-0.9,0.2-1.3,0.2c-0.5,0.1-1,0.1-1.5,0.1c-0.4,0-0.8,0-1.2,0c-0.4,0-0.9-0.1-1.3-0.2l2.5-3.3
			c0.7,0,1.4,0,2,0c0.6-0.1,1.2-0.1,1.8-0.3c0.5-0.1,0.9-0.2,1.4-0.3C440.3,441,440.8,440.8,441.4,440.5L441.4,440.5z"/>
	</g>
</g>
</svg>
