<?xml version="1.0" encoding="utf-8"?>
<!-- Generator: Adobe Illustrator 21.1.0, SVG Export Plug-In . SVG Version: 6.00 Build 0)  -->
<svg version="1.1" xmlns="http://www.w3.org/2000/svg" xmlns:xlink="http://www.w3.org/1999/xlink" x="0px" y="0px"
	 viewBox="0 0 800 800" style="enable-background:new 0 0 800 800;" xml:space="preserve">
<style type="text/css">
	.st0{fill:none;stroke:#444444;stroke-miterlimit:10;}
	.st1{fill:none;stroke:#F1161B;stroke-width:5;stroke-miterlimit:10;}
	.st2{opacity:0.88;fill:#FFFFFF;stroke:#BDBDBD;stroke-width:5;stroke-miterlimit:10;}
	.st3{opacity:0.86;}
	.st4{fill:#332B26;}
	.st5{fill:#F1161B;stroke:#FFFFFF;stroke-width:2;stroke-miterlimit:10;}
	.st6{fill:#FCFBF7;}
	.st7{font-family:'CocaCola';}
	.st8{font-size:38.5335px;}
</style>
<g id="straw">
	<polygon class="st0" points="403.7,126.9 337,60.3 323.3,73.9 384,134.7 384,353.1 403.4,353.1 403.4,127.2 	"/>
	<polyline class="st1" points="332.9,64.3 395.5,127.6 395.5,350.7 	"/>
</g>
<g id="bottle">
	<path class="st2" d="M424.8,174c2.7-1.3,4.5-4,4.5-7.1c0-4.3-3.5-7.9-7.9-7.9h-59.2c-4.3,0-7.9,3.5-7.9,7.9c0,3.5,2.3,6.5,5.5,7.5
		c-5.4,3.9-10.4,9.3-10.4,13.1v2.4c0,6.6,5.4,12.1,12.1,12.1h60.4c6.6,0,12.1-5.4,12.1-12.1v-2.4C434.2,183.6,429.8,178,424.8,174z"
		/>
	<path class="st2" d="M434.8,746l-89.5-2.4c-6.6,0-48.4-10.9-37.5-58c0,0,13.3-38.8,13.3-72.5c0-39.9-18.3-125.4-15.1-167.4
		c6.6-87.7,43.4-153,45.3-185.6c1.2-20.6,5.5-56.3,6-58h68.9c0,0,4.5,34.4,6,53.2c2.4,30.2,44.7,123.3,46.5,193.3
		c1.1,40.5-19.3,120.5-17.5,161c0.9,21.5,20.6,83.4,20.6,83.4C486.8,738.7,441.5,746,434.8,746z"/>
</g>
<g id="water" class="st3">
	<path class="st4" d="M427,738.7l-74.6-2c-5.5,0-46.4-8.7-38.8-46.3c0.2-1,0.5-2,0.9-3c2.6-6.5,12.9-34.1,12.9-58.5
		c0-32.9,0.4-60.9-7.8-94.7c-8.6-35.4-8.4-79.7-2.2-117.7c6.7-40.9,20-74.5,23-81.6c5.5-13,13.5-44,17.1-55c0,0,22.3-0.1,34.2,4.6
		c9.7,3.9,37.7,5.1,37.7,5.1s6.4,25.4,14.9,46.5c5.4,13.4,15.8,39.9,21.1,71.1c5.7,33.8,5.7,73.1,0.6,107.5
		c-4.9,33.1-14.2,96.1-9.6,111.5c4.6,15.3,13.7,58.8,15.5,67.1c0.2,0.9,0.3,1.9,0.4,2.8C475.3,732.9,432.5,738.7,427,738.7z"/>
	<path class="st5" d="M454,483.1H329.7c-3.1,0-5.5-2.5-5.5-5.5l4.8-59c0-3.1,2.5-5.5,5.5-5.5l115.8,1.2c3.1,0,5.5,2.5,5.5,5.5
		l3.6,57.8C459.6,480.6,457.1,483.1,454,483.1z"/>
	<text transform="matrix(1 0 0 1 334.415 466.2109)" class="st6 st7 st8">C</text>
</g>
</svg>
