<?xml version="1.0" encoding="utf-8"?>
<!-- Generator: Adobe Illustrator 21.1.0, SVG Export Plug-In . SVG Version: 6.00 Build 0)  -->
<svg version="1.1" id="Layer_2" xmlns="http://www.w3.org/2000/svg" xmlns:xlink="http://www.w3.org/1999/xlink" x="0px" y="0px"
	 viewBox="0 0 800 800" style="enable-background:new 0 0 800 800;" xml:space="preserve">
<style type="text/css">
	.st0{fill:#FC5454;stroke:#F95882;stroke-width:2;stroke-miterlimit:10;}
	.st1{fill:none;stroke:#826A6A;stroke-width:4;stroke-miterlimit:10;}
	.st2{fill:#7C5651;}
	.st3{opacity:0.58;fill:#FFFFFF;stroke:#5B3231;stroke-width:6;stroke-miterlimit:10;}
	.st4{fill:#FCFCFC;stroke:#826A6A;stroke-width:4;stroke-miterlimit:10;}
	.st5{fill:none;stroke:#FCFCFC;stroke-width:13;stroke-linecap:round;stroke-miterlimit:10;}
	.st6{fill:#FCF2F2;}
</style>
<rect x="381.9" y="138.1" transform="matrix(0.9658 -0.2594 0.2594 0.9658 -54.9653 110.9175)" class="st0" width="21.6" height="251.1"/>
<path class="st1" d="M428.3,277.1c-8.9,2.9-19.8,4.7-31.6,4.7c-11.8,0-22.7-1.7-31.6-4.7c-50.7,13-87.8,56.7-88,108.6
	C277,419,330.9,395,397,395s117,38,119.4-9.3C519,333.9,479.1,290.2,428.3,277.1z"/>
<path class="st2" d="M482.8,711h-170l-24.4-317c0,0,65.5-50.4,104.5-75c68-43,116.3,75,116.3,75L482.8,711z"/>
<polygon class="st3" points="482.8,711 312.9,711 278.8,390.6 519.1,390.6 "/>
<path class="st4" d="M534.4,398h-5.9c0.6-1,0.9-2.2,0.9-3.5v-1.2c0-4.1-3.4-7.5-7.5-7.5H268.4c-4.1,0-7.5,3.4-7.5,7.5v1.2
	c0,1.3,0.3,2.5,0.9,3.5H257c-4.4,0-8,3.6-8,8v1.3c0,4.4,3.6,8,8,8h277.4c4.4,0,8-3.6,8-8V406C542.4,401.6,538.8,398,534.4,398z"/>
<line class="st5" x1="467" y1="598" x2="474.4" y2="534"/>
<line class="st5" x1="479.8" y1="489.6" x2="482" y2="477"/>
<g>
	<ellipse transform="matrix(0.647 -0.7625 0.7625 0.647 -338.399 465.106)" class="st6" cx="333.1" cy="598" rx="7.2" ry="7"/>
	<ellipse transform="matrix(0.647 -0.7625 0.7625 0.647 -327.837 504.7387)" class="st6" cx="381.2" cy="606.4" rx="9.8" ry="9.5"/>
	
		<ellipse transform="matrix(0.647 -0.7625 0.7625 0.647 -380.4505 501.6938)" class="st6" cx="351.6" cy="661.7" rx="3.8" ry="3.7"/>
	<ellipse transform="matrix(0.647 -0.7625 0.7625 0.647 -368.3984 486.3148)" class="st6" cx="341" cy="641" rx="8.5" ry="7.8"/>
	<ellipse transform="matrix(0.647 -0.7625 0.7625 0.647 -355.792 498.4413)" class="st6" cx="360.4" cy="633.5" rx="7.2" ry="7"/>
	
		<ellipse transform="matrix(0.647 -0.7625 0.7625 0.647 -351.8907 532.6317)" class="st6" cx="399.3" cy="646.3" rx="9.8" ry="9.5"/>
	
		<ellipse transform="matrix(0.647 -0.7625 0.7625 0.647 -392.4521 514.2077)" class="st6" cx="359.1" cy="680.9" rx="8.5" ry="7.8"/>
	
		<ellipse transform="matrix(0.647 -0.7625 0.7625 0.647 -289.4264 458.2776)" class="st6" cx="350.2" cy="541.7" rx="6.1" ry="5.9"/>
	<ellipse transform="matrix(0.647 -0.7625 0.7625 0.647 -280.5008 491.77)" class="st6" cx="390.8" cy="548.8" rx="8.3" ry="8"/>
	<ellipse transform="matrix(0.647 -0.7625 0.7625 0.647 -314.778 476.2005)" class="st6" cx="356.9" cy="578" rx="7.2" ry="6.6"/>
	
		<ellipse transform="matrix(0.647 -0.7625 0.7625 0.647 -373.3705 556.0509)" class="st6" cx="413.8" cy="681.2" rx="9.8" ry="9.5"/>
</g>
</svg>
