<?xml version="1.0" encoding="utf-8"?>
<!-- Generator: Adobe Illustrator 21.1.0, SVG Export Plug-In . SVG Version: 6.00 Build 0)  -->
<svg version="1.1" id="Layer_2" xmlns="http://www.w3.org/2000/svg" xmlns:xlink="http://www.w3.org/1999/xlink" x="0px" y="0px"
	 viewBox="0 0 800 800" style="enable-background:new 0 0 800 800;" xml:space="preserve">
<style type="text/css">
	.st0{fill:#FDC600;}
	.st1{fill:#E6A900;}
	.st2{fill:#F9BB00;}
	.st3{fill:#66392A;}
	.st4{fill:#573026;}
	.st5{fill:#719B50;}
	.st6{fill:#688D47;}
	.st7{fill:#274738;}
	.st8{fill:#FFD200;}
	.st9{fill:none;stroke:#FFFFFD;stroke-width:4;stroke-miterlimit:10;}
	.st10{fill:#FCFCFC;}
	.st11{fill:#FCFCFC;stroke:#FFFFFD;stroke-width:3;stroke-miterlimit:10;}
	.st12{fill:#F22539;}
	.st13{font-family:'BananasSocialClub';}
	.st14{font-size:52.7529px;}
	.st15{fill:#F4F4F4;}
</style>
<polygon class="st0" points="471.6,722 212.9,674 212.9,235.5 471.6,285.2 "/>
<polygon class="st1" points="471.6,285.2 577.8,227 577.8,655.2 471.6,722 "/>
<polygon class="st2" points="212.9,235.5 471.6,285.2 577.8,227 324.3,179 "/>
<polygon class="st3" points="212.9,674 471.6,620.1 471.6,722 "/>
<polyline class="st4" points="471.6,620.9 471.6,722 577.8,655.2 577.8,557.1 471.6,620.9 "/>
<path class="st5" d="M212.9,674V526c0,0,85.2,6.4,130.2,0.7c68.5-8.6,128.5-37.1,128.5-37.1l1.4,130.5L212.9,674"/>
<path class="st6" d="M470.9,489.6c0,0,31.5,13.1,48.6,14.9c17.1,1.7,58.2,0,58.2,0l0.3,53.1l-105.2,62.4L470.9,489.6"/>
<g>
	<path class="st7" d="M272.9,552.4c-29.1-27.4-32.5-41.1-44.5-53.1s-22.3-32.5,36-34.3s49.7,60,49.7,60L272.9,552.4z"/>
	<path class="st7" d="M291.7,483.9c0-36,18.8-54.8,22.3-68.5s-6.9-17.1,18.8,0c25.7,17.1,49.7,32.5,54.8,83.9
		C392.8,550.7,291.7,483.9,291.7,483.9z"/>
	<path class="st7" d="M362,451.4c12-25.7,39.4-34.3,49.7-54.8c10.3-20.6,37.7,48,41.1,82.2s-65.1,61.7-65.1,61.7L362,451.4z"/>
	<path class="st5" d="M238.6,482.2l53.1,42c0,0-16.6,9.6-31.1,0C233.5,506.2,238.6,482.2,238.6,482.2z"/>
	<path class="st5" d="M330.1,421l6.5,69.8c0,0-28.7-11.8-28.9-28.7C307.2,420.5,330.1,421,330.1,421z"/>
	<path class="st5" d="M405.1,431.1l-23.5,23c0,0-6.6-9.3,5.4-21.2C397.5,422.6,405.1,431.1,405.1,431.1z"/>
</g>
<circle class="st8" cx="358.5" cy="569.5" r="107.9"/>
<circle class="st9" cx="358.5" cy="571.3" r="95.9"/>
<circle class="st10" cx="358.5" cy="569.5" r="15.4"/>
<line class="st11" x1="436" y1="514.7" x2="358.5" y2="569.5"/>
<line class="st11" x1="358.5" y1="554.1" x2="358.5" y2="475.3"/>
<line class="st11" x1="357.7" y1="570.4" x2="453.5" y2="585"/>
<line class="st11" x1="357.7" y1="570.4" x2="410.4" y2="652"/>
<line class="st11" x1="357.7" y1="570.4" x2="334" y2="664"/>
<line class="st11" x1="357.7" y1="570.4" x2="271.3" y2="611.2"/>
<line class="st11" x1="357.7" y1="570.4" x2="277.9" y2="519.2"/>
<text transform="matrix(0.7666 -0.1475 0.189 0.982 231.659 371.2769)"><tspan x="0" y="0" class="st12 st13 st14">Lemon</tspan><tspan x="0" y="63.3" class="st12 st13 st14">     Tea</tspan></text>
<ellipse transform="matrix(0.1807 -0.9835 0.9835 0.1807 170.5318 673.0574)" class="st15" cx="489.2" cy="234.2" rx="9.6" ry="16.2"/>
</svg>
