<?xml version="1.0" encoding="utf-8"?>
<!-- Generator: Adobe Illustrator 21.1.0, SVG Export Plug-In . SVG Version: 6.00 Build 0)  -->
<svg version="1.1" xmlns="http://www.w3.org/2000/svg" xmlns:xlink="http://www.w3.org/1999/xlink" x="0px" y="0px"
	 viewBox="0 0 800 800" style="enable-background:new 0 0 800 800;" xml:space="preserve">
<style type="text/css">
	.st0{fill:#848484;stroke:#878787;stroke-miterlimit:10;}
	.st1{fill:#EBEDF2;stroke:#A5A5A5;stroke-miterlimit:10;}
	.st2{fill:#7CC9F7;}
	.st3{fill:#FFFFFF;}
	.st4{opacity:0.46;fill:#FFFFFF;}
</style>
<g id="bottle">
	<path class="st0" d="M501.7,263.4c0,0-27.9,7.1-110.7,7.1c-69.6,0-118.3-12.6-118.3-12.6l-4.5-42.8c-0.6-6,2-11.8,6.9-15.3
		c13.8-9.7,47.8-26.9,114.9-26.9c70.9,0,105.4,20.6,118,28.9c3.6,2.4,5.5,7.8,5,12.1L501.7,263.4z"/>
	<path class="st1" d="M519.2,238.2c0,31.5-57.5,57-129.8,57s-129.8-25.5-129.8-57s57.5-57,129.8-57S519.2,206.7,519.2,238.2z"/>
	<path class="st0" d="M506,589.3c0,0-32.3-9.3-115-9.3c-69.6,0-118.3,12.6-118.3,12.6l-4.9,45.8c-0.4,3.8,1.2,7.6,4.2,10
		c11.5,9,45.3,29.1,117.9,29.1c67.3,0,101.8-15.6,115.9-24.3c4.9-3,7.5-8.7,6.8-14.4L506,589.3z"/>
	<path class="st1" d="M518.1,612.3c0-31.5-56.4-57-128.7-57s-128.7,25.5-128.7,57s56.4,57,128.7,57S518.1,643.8,518.1,612.3z"/>
	<path class="st2" d="M519.7,623.3c0,0-46.6,26.3-129.3,26.3c-69.6,0-131.5-26.3-131.5-26.3v-390c0,0,36.7-32.9,130.4-32.9
		s130.4,32.9,130.4,32.9V623.3z"/>
	<g>
		<g>
			<path class="st3" d="M276,408.9c-0.6,0.4-1.2,0.6-1.8,0.6c-0.6,0.1-1.2,0.1-1.8,0.2c-0.1,0.4-0.1,1.1-0.1,1.9c0,0.8,0,1.5-0.2,2
				c-0.1,0.2-0.2,0.5-0.3,0.9s-0.2,0.6-0.3,0.6c-0.4-0.5-0.6-1.2-0.7-2c-0.1-0.8-0.1-1.4-0.1-2c0-0.4,0-0.7,0-1
				c0-0.3,0.1-0.6,0.1-0.8c0-0.1,0.1-0.3,0.1-0.4c0.1-0.2,0.2-0.4,0.2-0.6c0.1-0.3,0.1-0.7,0.2-1c0-0.3,0.2-0.5,0.3-0.6
				c0.3-0.1,0.6,0,0.7-0.1c0.1-0.1,0.2-0.2,0.3-0.2c0.2-0.1,0.3-0.1,0.5,0.1c0.2,0.2,0.3,0.2,0.5,0.2c0.1,0,0.2-0.1,0.3-0.1
				c0.1-0.1,0.2-0.1,0.3-0.1c0.1,0.1,0.2,0.2,0.4,0.2c0.1,0,0.3-0.1,0.4-0.1c0.1-0.1,0.3-0.1,0.4-0.2c0.1-0.1,0.3,0,0.3,0
				c0.2,0.3,0.3,0.6,0.3,1.1C276,407.9,276,408.3,276,408.9z M300.5,443.2c0.1,0.2,0.2,0.7,0.3,1.1c0.1,0.3,0.2,0.7,0.3,1.1
				c0.1,0.3,0.2,0.6,0.3,0.8c0.1,0.3,0.2,0.5,0.3,0.8c0.3,0.9,0.6,1.7,0.9,2.6c0.3,0.9,0.7,1.7,1,2.5c0.3,0.7,0.5,1.6,0.7,2.5
				c0.2,0.8,0.5,1.5,0.8,2.1c0.1,0.5,0.1,0.9,0.3,1.2c0.1,0.3,0.2,0.7,0.4,1.1c0.2,0.7,0.4,1.3,0.6,1.9c0.2,0.6,0.4,1.2,0.7,1.8
				c0.4-2.1,0.7-4.3,1-6.5c0.3-2.2,0.6-4.5,0.8-6.9c0.2-0.1,0.3-0.3,0.5-0.5c0.2-0.2,0.4-0.4,0.6-0.6c0.1-0.2,0.1-0.4,0.2-0.6
				c0-0.2,0.1-0.4,0.2-0.7c0.2-0.8,0.4-1.4,0.4-1.7c0-0.3-0.2-0.8-0.3-1.2c-0.2-0.7,0-1.7,0.1-2.6c0.1-0.9,0.3-1.7,0.4-2.3
				c0.1-0.4,0.1-0.8,0.1-1.1c0-0.3,0.1-0.7,0.2-1c0-0.4,0.1-0.7,0.1-1c0.1-0.3,0.1-0.6,0.2-0.9c0-0.4,0.1-0.8,0.1-1.1
				c0.1-0.3,0.1-0.7,0.2-1.1c0-0.3,0.1-0.6,0.1-1c0-0.3,0-0.7,0.1-1.1c0.1-0.6,0.2-1.2,0.3-1.8c0.1-0.5,0.2-1.1,0.2-1.8
				c0-0.3,0.1-0.6,0.1-0.9c0-0.3,0-0.6,0.1-0.9c0.1-0.7,0.2-1.5,0.4-2.3c0.2-0.8,0.3-1.6,0.4-2.3c0.1-1.1,0.1-2,0.2-2.5
				c0.1-0.4,0.1-0.8,0.2-1.1c0.1-0.3,0.1-0.7,0.2-1.1c0-0.8,0.1-1.2,0.1-1.3c0-0.1,0.1-0.2,0.1-0.4c0.2-1.2,0.3-2,0.4-2.4
				c0.1-0.4,0-1,0.2-1.3c0.1-0.2,0.2-0.6,0.4-1.3c0.2-0.1,0.3-0.3,0.4-0.5c0.1-0.2,0.3-0.5,0.4-0.7c0.4,0.3,0.8,0.4,1.2,0.2
				c0.4-0.2,0.8-0.1,1.2,0.2c0.3-0.2,0.5-0.3,0.8-0.2c0.3,0.1,0.6,0.1,0.8,0c0.2-0.1,0.4-0.1,0.6-0.3c0.2-0.1,0.4-0.3,0.6-0.4
				c0.2-0.1,0.5-0.1,0.8-0.1c0.3,0,0.6-0.1,0.9-0.1c0.3,0,0.6-0.1,0.9-0.2c0.3-0.2,0.6-0.2,1-0.3c0.8-0.2,1.7-0.3,2.7-0.3
				c0.3,1,0.6,2,1.1,2.8c0.2,0.1,0.3,0.3,0.4,0.4c0.1,0.2,0.2,0.3,0.4,0.4c0.2,0.1,0.4,0.1,0.6,0.1c0.2,0,0.4,0,0.5,0.2
				c0.2,0.3,0.3,0.6,0.4,1c0.1,0.4,0.2,0.7,0.4,1.1c0.2,1.5,0.3,3,0.5,4.5c0.2,1.4,0.3,2.9,0.4,4.4c0.1,1.1,0.2,2.2,0.3,3.2
				c0.1,1.1,0.2,2.2,0.3,3.2c0.2,1.1,0.3,2,0.4,2.6c0,0.6,0.1,1.2,0.1,1.8c0.1,0.9,0,1.7-0.3,2.5c-0.3,0.7-0.5,1.4-0.6,2
				c-0.1,0.7,0,1.4,0.3,2.2c0.2,0.7,0.4,1.6,0.6,2.1c0.2,0.5,0.7,1.1,0.9,1.8c0.2,0.7,0.4,1.4,0.5,2.3c0.1,0.5,0.1,1,0.2,1.5
				c0,0.5,0.1,0.9,0,1.2c0.2,1.5,0.4,3,0.6,4.4c0.2,1.4,0.3,2.9,0.5,4.4c0,0.6,0.1,1.3,0.2,1.9c0.1,0.7,0.1,1.3,0.2,1.9
				c0.1,1,0.2,1.9,0.4,2.8c0.2,0.9,0.3,1.9,0.4,3c-0.2,1.5-0.4,2.6-0.4,3.4c0,0.8,0,1.6,0.2,2.6c0.1,0.8,0.3,1.4,0.7,1.8
				c0.3,0.3,0.6,0.9,0.8,1.7c0.2,2,0.5,4.1,0.7,6.3c0.3,2.2,0.5,4.3,0.7,6.1c-0.3,0.5-0.7,0.6-1.1,0.3c-0.3-0.2-0.5-0.4-0.6-0.4
				s-0.1,0-0.2-0.1c-0.1-0.1-0.2-0.2-0.3-0.3c-0.1-0.1-0.2-0.2-0.3-0.2c-0.3,0-0.5,0.3-0.7,0.8c-0.1,0.6-0.3,1.1-0.5,1.4
				c-0.2,0.2-0.5,0.5-0.6,0.7c-0.6,0.1-1.3,0.2-2,0.4c-0.7,0.2-1.4,0.3-2,0.3c-0.3,0-0.5,0.1-0.7,0.3c-0.2,0.2-0.5,0.3-0.8,0.4
				c-0.3,0.1-0.7,0.2-1,0.3c-0.3,0.1-0.7,0.2-1.1,0.2c-0.1,0-0.2,0-0.3,0c-0.1,0-0.2,0-0.3,0c-0.4,0.2-0.8,0.4-1.4,0.8
				c-0.5,0.4-1.1,0.3-1.6-0.2c-0.4,0-0.6-0.1-0.6-0.4c0-0.3-0.1-0.5-0.2-0.7c-0.1-0.2-0.1-0.4-0.2-0.7c-0.1-0.2-0.2-0.4-0.2-0.7
				c-0.1-0.3-0.1-0.6-0.2-0.8c0-0.3-0.1-0.6-0.2-0.8c-0.1-0.4-0.3-0.7-0.5-0.8c-0.2-0.1-0.5-0.3-0.7-0.6c-0.2-1.1-0.4-2.4-0.5-3.7
				c-0.1-1.4-0.1-2.6-0.1-3.6c-0.3-1.4-0.4-2.8-0.6-4.2c-0.1-1.4-0.3-2.8-0.5-4.3c-0.3-2.6-0.5-5.1-0.7-7.5s-0.3-5.1-0.6-8
				c-0.1-1-0.2-2-0.3-3c-0.1-1-0.2-2-0.3-3c-0.1,1.1-0.3,2.2-0.4,3.3c-0.1,1.1-0.3,2.2-0.4,3.3c-0.1,0.8-0.3,1.6-0.5,2.4
				c-0.2,0.8-0.3,1.7-0.4,2.5c0,0.7,0,1.2-0.1,1.6c-0.1,0.4-0.1,0.9-0.1,1.5c-0.1,0.7-0.2,1.4-0.3,1.7c0,0.3,0,0.7-0.1,1.1
				c-0.1,0.3-0.2,0.4-0.4,0.2c-0.1-0.2-0.3-0.3-0.5-0.1c-0.2,0.8-0.3,1.3-0.3,1.5c0,0.2,0,0.6,0,1.2c0,1.3,0.1,2,0.3,2.3
				c0.2,0.3,0.3,0.6,0.3,0.9c0,0.3,0,0.7-0.1,1.2c-0.1,0.5-0.1,0.9-0.2,1.3c-0.3,1.7-0.5,3.6-0.8,5.7c-0.1,1.1-0.2,2.2-0.3,3.2
				c-0.2,0.4-0.3,0.9-0.3,1.4c0,0.5-0.1,1-0.1,1.5c-0.1,0.7-0.2,1.4-0.3,2.1c-0.1,0.7-0.2,1.4-0.4,2c-0.1,0.8-0.3,1.2-0.3,1.1
				c0-0.1-0.1-0.2-0.1-0.3c-0.2,0.6-0.5,0.9-0.9,1c-0.4,0.1-0.7-0.2-1-0.8c-0.3,0.1-0.5,0.3-0.7,0.4c-0.2,0.2-0.5,0.3-0.7,0.5
				c-0.2,0.2-0.3,0.4-0.5,0.7c-0.2,0.3-0.4,0.4-0.7,0.4c-0.4-0.3-0.7-0.5-0.8-0.5c-0.1,0-0.2,0-0.3-0.1c-0.3-0.3-0.6-0.8-0.7-1.5
				c-0.2-0.6-0.4-1.4-0.6-2.2c-0.1-0.5-0.3-1-0.5-1.5c-0.2-0.4-0.4-1-0.6-1.6c-0.5-1.5-0.9-3-1.4-4.6c-0.5-1.5-0.9-3.1-1.4-4.6
				c-0.1-0.2-0.2-0.4-0.3-0.7c-0.1-0.2-0.2-0.5-0.3-0.8c-0.1-0.3-0.2-0.9-0.4-1.6c-0.1-0.5-0.3-1-0.5-1.5s-0.3-0.9-0.5-1.5
				c-0.1-0.4-0.2-0.9-0.3-1.5c-0.1-0.5-0.2-1.1-0.3-1.6c-0.1-0.6-0.3-1.2-0.4-1.6c-0.1-0.5-0.2-1-0.3-1.4c-0.3-1.9-0.7-3.3-1.2-4.1
				s-1-1.6-1.4-2.5c-0.4-1.5-0.8-3-1.2-4.6c-0.4-1.5-0.7-3-1.2-4.5c-0.1,0.2-0.1,0.4,0,0.6c0,0.2,0,0.5,0,0.8
				c0.1,0.8,0.1,1.6,0.1,2.4c0,0.7,0,1.4,0.1,2.1c0,0.8,0.1,1.6,0.1,2.4c0.1,0.8,0.1,1.7,0.2,2.5s0.1,1.7,0.2,2.4
				c0.1,0.8,0.1,1.6,0.1,2.3c0,0.8,0.1,1.7,0.2,2.7c0.1,0.9,0.2,1.8,0.2,2.5c0,0.5-0.1,0.9-0.1,1.4c-0.1,0.5-0.2,0.9-0.2,1.4
				c-0.1,0.4-0.1,0.9-0.2,1.4c0,0.5,0.1,1.1,0.2,1.7c0.1,0.2,0.1,0.3,0.3,0.5c0.1,0.2,0.2,0.4,0.3,0.6c0.3,1,0.5,1.8,0.6,2.4
				c0.1,0.6,0.1,1.4,0.2,2.2c0.1,1.2,0.3,2.5,0.5,3.8c0.2,1.3,0.3,2.6,0.3,3.9c-0.5,0.6-0.8,1.1-0.9,1.5c-0.2,0.4-0.3,0.8-0.5,1.2
				c-0.3-0.1-0.5,0-0.7,0.1c-0.2,0.1-0.5,0.1-0.7,0.2c-0.8,0.1-1.6,0-2.4-0.1c-0.9-0.2-1.8-0.3-2.6-0.6c-0.3-0.1-0.5-0.3-0.6-0.3
				c-0.2,0-0.3,0-0.4,0.1c-0.1,0.1-0.3,0.1-0.4,0.1c-0.3,0-0.6,0-0.9-0.1c-0.3-0.1-0.6-0.2-0.9-0.3c-0.3-0.1-0.6-0.1-0.9-0.1
				c-0.3,0-0.6,0-0.8-0.1c-0.4-0.1-0.9-0.2-1.3-0.3c-0.4-0.1-1-0.5-1.2-1c-0.2-0.4-0.4-0.9-0.7-1.2c-0.3-0.3-0.6-0.5-0.9-0.7
				c-0.3-0.8-0.5-1.3-0.6-1.6c-0.1-0.3-0.2-0.6-0.3-0.9c-0.1-0.8-0.2-1.5-0.1-2.2c0-0.7,0-1.4-0.1-2.1c-0.1-0.6-0.2-1.3-0.3-2
				c-0.1-0.7-0.1-1.4-0.2-2c-0.1-0.6-0.2-1.2-0.2-1.8c0-0.6,0-1.2-0.1-1.8c-0.1-1.1-0.2-2.2-0.3-3.2c-0.1-1-0.2-2-0.2-3.1
				c0-0.2,0-0.4,0-0.7c0-0.3,0.1-0.6,0.1-0.7c0.3-1,0.4-1.9,0.3-2.7c0-0.8,0-1.6,0.1-2.3c-0.1-2.1-0.4-3.8-0.9-5.2
				c-0.1-0.3-0.2-0.5-0.3-0.7c-0.1-0.1-0.1-0.3-0.2-0.6c-0.1-0.4-0.1-0.9-0.2-1.6c0-0.7-0.1-1.2-0.1-1.7c-0.1-0.9-0.1-1.7-0.1-2.3
				c0-0.6,0.1-1.3,0.1-2c0-0.4,0-0.7,0-1c0-0.3,0-0.6,0-0.9c0-0.4,0.1-0.8,0.1-1.3c0-0.5,0-1-0.2-1.5c-0.1-0.2-0.1-0.4-0.2-0.6
				c-0.1-0.1-0.2-0.3-0.2-0.4c-0.2-0.7-0.3-1.4-0.3-2.1c-0.1-0.7-0.1-1.4-0.1-2.1c-0.1-1.2-0.1-2.4-0.3-3.8
				c-0.1-1.3-0.2-2.6-0.3-3.8c-0.1-2-0.2-4-0.4-6c-0.1-1.5-0.3-3-0.5-4.7c-0.2-1.6-0.3-3.3-0.4-5c0-0.4,0-0.9,0-1.3
				c0-0.4,0-0.8,0-1.3c0.3-0.7,0.7-1.2,1.1-1.5c0.4-0.3,0.8-0.2,1.2,0.4c0.3,0.1,0.5,0.1,0.7,0c0.2-0.1,0.4,0,0.6,0.2
				c0.2-0.3,0.4-0.7,0.5-1.1c0.1-0.4,0.2-1,0.4-1.2c0.1-0.1,0.5-0.1,0.7,0c0.2,0.1,0.5,0.1,0.8,0.1c0.2,0,0.4-0.1,0.6-0.2
				c0.2-0.1,0.4-0.1,0.6-0.1c0.1,0,0.3,0,0.5,0.1c0.1,0.1,0.3,0.3,0.5,0.3c0.3,0.1,0.9,0.1,1.3-0.1c0.4-0.1,0.9-0.2,1.3-0.1
				c0.4,0.1,0.7,0.3,0.8,0.2c0.1-0.1,0.3,0,0.5,0.1c0.3-0.2,0.6-0.2,1,0.1c0.3,0.3,0.7,0.4,1,0.3c0.4-0.2,0.9-0.2,1.2,0
				c0.4,0.2,0.8,0.4,1.2,0.6c0.5,0.6,1,1.5,1.3,2.6c0.3,1.2,0.6,2.4,0.9,3.6c0.2,0.4,0.4,0.7,0.6,1.2c0.2,0.4,0.3,0.9,0.6,1.3
				c0.3,0.8,0.6,1.6,0.9,2.5c0.3,0.8,0.6,1.7,0.9,2.6c0.3,0.8,0.6,1.7,0.9,2.8c0.3,1.1,0.6,2.1,0.9,3c0.3,0.6,0.4,1,0.4,1.2
				c0,0.2,0.1,0.4,0.1,0.6c0.2,0.7,0.4,1.4,0.6,2c0.2,0.6,0.4,1.2,0.6,1.8c0.1,0.2,0.2,0.5,0.3,0.7c0.1,0.3,0.2,0.5,0.2,0.6
				c0,0.4,0,0.8-0.1,1.2c-0.1,0.4-0.1,1,0.1,1.6c0,0.2,0.1,0.3,0.2,0.6c0.1,0.2,0.2,0.4,0.3,0.5c0.2,0.4,0.4,0.6,0.6,0.8
				C300,442.7,300.4,442.9,300.5,443.2z M277,419.4c0.1-0.3,0.3-0.6,0.5-0.8c0.3-0.3,0.5-0.4,0.7-0.5s0.4-0.2,0.5-0.3
				c0.1-0.1,0.2-0.3,0.3-0.6c0-0.2,0-0.6-0.2-1.1c-0.1-0.5-0.3-0.7-0.4-0.7c-0.4,0.4-0.8,0.8-1.3,1c-0.5,0.3-0.9,0.2-1.4-0.1
				c-0.1,1.9-0.1,3.4-0.1,4.8c0,1.3,0.2,2.6,0.5,3.8c0.4,0.2,0.7,0.1,0.8-0.2c0.1-0.3,0.1-0.8,0.1-1.4c0-0.6-0.1-1.3-0.2-2
				C276.9,420.5,276.9,419.9,277,419.4z M283,415.6c-0.1-0.2-0.5-0.4-0.9-0.6c-0.3-0.2-0.6-0.1-0.8,0.2c-0.2-0.2-0.3-0.3-0.4-0.2
				c-0.1,0.1-0.3,0.2-0.4,0.3c0,0.6,0,1,0.1,1.3c0.1,0.3,0.2,0.7,0.3,0.9c0.1,0.2,0.5,0.4,0.8,0.2s0.6-0.1,0.8-0.1
				c0.1,0,0.3,0,0.5,0c0.1,0,0.3-0.1,0.4-0.2c0-0.4,0-0.7-0.1-0.9C283.1,416.3,283.1,415.8,283,415.6z M297.4,423.3
				c0.1,0.1,0.4,0.3,0.6,0.5c0.1,0.2,0.3,0.4,0.5,0.5c0.2,0.6,0.3,1.2,0.4,1.7c0.1,0.6,0.1,1.1,0,1.7c0.2,0.8,0.4,1.7,0.7,2.6
				c0.3,0.9,0.6,1.8,0.8,2.6c0.1,0.4,0.3,0.8,0.5,1.1c0.2,0.4,0.3,0.8,0.4,1.2c0.1,0.7-0.1,1.2-0.5,1.6c-0.4,0.4-0.8,0.3-1-0.2
				c-0.4-0.8-0.6-1.8-0.8-3c-0.2-1.2-0.4-2.3-0.7-3.4c-0.2-0.4-0.3-0.7-0.4-1.2c-0.1-0.4-0.2-0.8-0.4-1.3c-0.1-0.3-0.2-0.6-0.3-0.8
				c-0.1-0.2-0.3-0.5-0.3-0.8c-0.1-0.4-0.2-0.7-0.3-1c-0.1-0.3-0.2-0.6-0.3-0.9c-0.2-0.5-0.3-1-0.5-1.5c-0.2-0.5-0.4-1-0.6-1.5
				c-0.3-0.7-0.6-1.7-0.9-2.8c-0.1-0.3-0.2-0.6-0.3-0.9c-0.1-0.3-0.2-0.6-0.3-0.9c-0.3-0.8-0.6-1.6-1-2.5c-0.3-0.9-0.7-1.7-1-2.5
				c0.1-0.3,0.1-0.6,0.2-0.9c0.1-0.3,0.3-0.4,0.5-0.3c0.4,0.2,0.8,0.8,1.1,1.7c0.3,0.9,0.7,1.6,1,2.1c0.4,1.3,0.8,2.6,1.2,3.9
				c0.4,1.3,0.9,2.5,1.4,3.5c0.1,0.3,0.1,0.6,0.2,0.8C297.3,422.8,297.3,423.2,297.4,423.3z M286.6,486.2c0,0.4,0,0.8,0.1,1.2
				c0,0.4,0.1,0.7,0.3,1c0.1,0.1,0.2,0.1,0.4,0c0.1-0.1,0.3,0,0.4,0.1c0.1-0.4,0.1-0.7,0.2-1c0.1-0.3,0-0.8,0-1.4
				c-0.2-0.1-0.4-0.1-0.7-0.2C287,485.8,286.8,485.9,286.6,486.2z M289.8,499.8c-0.5-0.4-0.8-0.8-0.9-0.9c-0.2-0.2-0.3-0.3-0.5-0.6
				c-0.1-0.1-0.2-0.1-0.4-0.1c-0.1,0-0.2-0.1-0.3-0.2c-0.2-0.3-0.3-0.8-0.3-1.4c0-0.6,0.2-1,0.4-1.1c0.4,0,1,0.2,1.3,0.1
				c0.4-0.1,0.7,0,1.1,0c0.4,0.3,0.6,0.7,0.8,1.2c0.2,0.5,0.2,0.9,0.2,1.3c0,0.9-0.1,1.4-0.4,1.5
				C290.5,499.9,290.2,499.9,289.8,499.8z M290.7,487.4c-0.2,0.5-0.1,0.9,0.2,1.2c0.3,0.2,0.5,0.4,0.7,0.5c0.4,0.4,0.7,0.5,0.8,0.3
				c0.1-0.2,0.3-0.2,0.4,0c0.8-0.3,1.1-1.4,0.8-3.2c0-0.4-0.1-0.8-0.2-1.1c-0.1-0.4-0.2-0.8-0.2-1.1c-0.1-0.6-0.3-0.8-0.5-0.4
				c-0.2,0.3-0.3,0.6-0.4,0.8c-0.1,0.4-0.1,1-0.1,1.6c0,0.6,0,1.2-0.2,1.5c-0.1,0.2-0.4,0.1-0.8-0.1
				C291.1,486.9,290.8,487,290.7,487.4z M292.3,499.1c-0.1-0.2-0.2-0.6-0.2-1c0-0.5,0-0.8,0-0.9c0.1-0.4,0.3-0.6,0.5-0.7
				c0.2-0.1,0.5,0,0.7,0c0.5,0.1,1,0.1,1.5-0.1c0.5-0.2,1.1-0.1,1.4-0.1c0.1,0,0.3-0.2,0.4-0.4c0.1-0.2,0.2-0.4,0.2-0.7
				c0.1-0.2,0.2-0.4,0.3-0.6c0.1-0.2,0.3-0.2,0.4-0.2c0.2,0.1,0.4,0.3,0.7,0.8c0.2,0.4,0.3,0.9,0.3,1.4c0,0.4-0.1,0.8-0.3,1.3
				c-0.2,0.4-0.3,0.7-0.5,0.8c-0.2,0.2-0.5,0.2-0.9,0.1c-0.4-0.1-0.7-0.1-1,0c-0.6,0.2-1.1,0.3-1.3,0.3c-0.3,0-0.6,0.1-0.8,0.1
				c-0.2,0-0.5,0.1-0.7,0.2C292.9,499.4,292.5,499.3,292.3,499.1z M305.9,483.3c-0.1,0.4,0,0.9,0,1.6c0.1,0.7,0.2,1.3,0.4,2
				c0.1,0.6,0.3,1.2,0.5,1.6c0.2,0.4,0.4,0.6,0.6,0.6c0.2,0,0.3-0.3,0.4-0.8c0.1-0.5,0.1-0.9,0.2-1.3c-0.3-0.7-0.6-1.6-0.9-2.5
				C306.9,483.6,306.5,483.2,305.9,483.3z M311,487.4c0-0.6-0.1-0.9-0.3-0.8c-0.2,0.1-0.3,0.2-0.5,0.4c0,0.3-0.1,0.5-0.2,0.6
				c-0.1,0.1-0.2,0.4-0.1,0.7c0.1,0.2,0.5,0.3,0.7,0.1C310.9,488.1,311,487.8,311,487.4z M316,487.9c0.3,0.6,0.3,1.2,0.2,1.9
				c-0.1,0.7-0.1,1.4-0.2,2c0,0.4-0.1,0.8-0.2,1.2c-0.1,0.4-0.2,0.9-0.2,1.3c0,0.3-0.1,0.7-0.1,1c0,0.4-0.1,0.7-0.1,0.9
				c-0.1,0.4-0.3,0.8-0.4,1.2c-0.2,0.4-0.3,0.8-0.3,1.3c-0.4,0.2-0.8,0.6-1.4,1c-0.6,0.4-1.2,0.6-1.6,0.5c-0.3-0.1-0.6-0.4-0.8-0.9
				c-0.2-0.5-0.3-1.2-0.3-2c0.4-0.7,0.9-1,1.5-0.8c0.6,0.1,1.1,0,1.5-0.5c0.2-0.3,0.4-0.7,0.5-1.2c0.2-0.5,0.3-1,0.5-1.6
				c0.2-0.6,0.3-1.3,0.3-2.2c0-0.5-0.1-0.9-0.1-1.3c-0.1-0.4,0-0.7,0.1-1.1c0.1-0.2,0.2-0.3,0.3-0.4c0.2-0.1,0.3-0.2,0.4-0.4
				C315.7,487.9,315.8,487.9,316,487.9z M319,438.1c-0.1,0-0.2,0.2-0.4,0.6c-0.2,0.4-0.3,0.6-0.3,0.8c0,0.9,0.2,1.4,0.5,1.7
				c0.3,0.3,0.6,0.6,0.7,1c0.4,0.5,0.7,1.5,0.9,3c0.1,0.9,0.1,1.7,0.2,2.4c0,0.8,0.2,1.6,0.3,2.5c0.3-0.1,0.6-0.2,0.6-0.4
				c0.1-0.2,0.1-0.3,0.1-0.5c0-0.9-0.1-1.7-0.2-2.4c-0.1-0.7-0.1-1.4-0.2-2.3c-0.1-1.3-0.2-2.6-0.3-3.7c-0.1-1.2-0.4-2.1-0.8-2.9
				c-0.1,0.3-0.3,0.3-0.5,0.2C319.5,438,319.3,438,319,438.1z M322.3,454.3c-0.2-0.1-0.5,0-0.7,0.4c-0.2,0.4-0.4,1.2-0.1,1.6
				c0.2,0.4,0.8,0.4,1-0.2C322.6,455.4,322.5,454.8,322.3,454.3z M333.6,415.3c-0.2,0.3-0.4,0.4-0.5,0.3c-0.1-0.1-0.2-0.2-0.3-0.3
				c-0.2-0.9-0.3-1.9-0.3-2.9c0-1.1-0.1-2.1-0.4-3c-0.1-0.4-0.2-0.7-0.3-0.9c-0.1-0.2-0.2-0.5-0.3-0.8c-0.1,0.2-0.4,0.3-0.7,0.4
				c-0.3,0.1-0.5,0.1-0.8,0.2c-0.1,0-0.2-0.1-0.5-0.3c-0.3-0.2-0.5-0.4-0.6-0.5c-0.1-0.3-0.2-0.6-0.2-1c0-0.4-0.1-0.8-0.1-1.3
				c-0.4-0.4-0.6-0.5-0.8-0.5c-0.1,0.1-0.2,0.1-0.4,0c-0.4-0.1-0.6-0.1-0.8,0c-0.2,0.2-0.4,0.2-0.5,0.1c-0.1,0-0.3-0.2-0.4-0.5
				c-0.1-0.3-0.2-0.6-0.2-1c0-0.8,0.2-1.2,0.6-1.2c0.4,0,0.7,0.1,1,0.4c0.3-0.1,0.6-0.2,1-0.2c0.4,0,0.8,0,1.1-0.1
				c0.1,0,0.2-0.1,0.3-0.2c0.1-0.1,0.2-0.1,0.3,0c0.3,0,0.5,0.2,0.6,0.7c0.2,0.4,0.3,1,0.5,1.2c0.2,0.2,0.5,0.4,0.7,0.7
				c0.2,0.3,0.4,0.7,0.7,1.2c0.5,0.7,0.7,1.6,0.7,2.9c0,1.1,0,2.2,0,3.2C333.3,413.1,333.4,414.2,333.6,415.3z M328.9,418
				c0.2-0.1,0.4-0.3,0.4-0.8c0-0.4,0-0.9-0.1-1.3c-0.1-0.4-0.3-0.8-0.4-1.1c-0.2-0.3-0.4-0.4-0.6-0.1c-0.2,0.2-0.3,0.6-0.4,1
				c-0.1,0.5-0.1,1,0,1.5c0.3,0.5,0.6,0.7,0.7,0.8C328.6,418.1,328.8,418.1,328.9,418z M341,488.4c0.1,0.5,0.3,1,0.4,1.4
				s0.2,0.9,0.2,1.2c0.1,0.7,0,1.4-0.2,2.1c-0.2,0.7-0.5,1.1-0.8,1.3c-0.1,0.1-0.2,0.1-0.3,0.1c-0.1,0-0.2,0-0.3,0
				c-0.3,0-0.8,0.1-1.2,0.4c-0.4,0.3-0.8,0.5-1.3,0.5c-0.3-0.5-0.5-1-0.6-1.6c-0.1-0.6-0.1-1.2,0.2-1.8c0.1-0.3,0.4-0.5,0.7-0.5
				c0.3-0.1,0.6-0.1,0.9,0c0.6,0.3,1.1,0.3,1.4,0.2c0.3-0.2,0.5-0.4,0.6-0.8c0.1-0.4,0.1-0.9,0.1-1.6
				C340.5,488.6,340.6,488.3,341,488.4z"/>
			<path class="st3" d="M339.9,405.3c-0.4-0.1-0.7-0.1-1,0.2c-0.3,0.3-0.5,0.6-0.8,1c0,0.2-0.1,0.4-0.1,0.7c0,0.3-0.1,0.7-0.1,1
				c0,0.4,0,0.8,0,1.1c0,0.4,0,0.7,0,1c0,0.4,0.1,0.8,0.1,1.1c0.1,0.4,0,0.7-0.1,0.9c-0.8-0.5-1.2-1.5-1.2-3.1c0-0.2,0-0.5,0-0.8
				c0-0.3,0-0.6,0-0.9c-0.1-0.6-0.1-1.2-0.1-1.6c0-0.5,0-0.9,0.1-1.2c0.1-0.4,0.3-0.7,0.5-0.7c0.2,0,0.4-0.1,0.7-0.1
				c0.5-0.5,0.9-0.6,1.1-0.3c0.2,0.3,0.4,0.3,0.7,0.3C339.9,404.6,339.9,405.1,339.9,405.3z M368.2,461.1c0,0.4,0.1,0.8,0.3,1.2
				c0.1,0.3,0.2,0.7,0.3,1c0.1,0.6,0.2,1.3,0.2,1.8c0,0.6,0,1.1,0,1.6c-0.1,0.2-0.2,0.3-0.3,0.5c-0.1,0.1-0.1,0.3-0.1,0.6
				c-0.3,0.2-0.6,0.5-0.8,0.8c-0.4,0-0.9,0.1-1.2,0.3c-0.3,0.2-0.8,0.3-1.1,0.4c-0.1,0-0.3,0.1-0.6,0.2c-0.3,0.1-0.5,0.1-0.7,0
				c-0.7-0.3-1.3-0.6-1.9-1c-0.6-0.4-1.3-0.4-2,0.1c-0.1,0.1-0.3,0.2-0.3,0.3c-0.1,0.2-0.2,0.2-0.4,0.1c-0.2,0.4-0.5,0.7-0.8,0.8
				c-0.3,0.1-0.5,0.4-0.7,0.7c-0.4,0.3-0.9,0.7-1.2,1c-0.4,0.3-0.8,0.6-1.4,0.7c-0.2,0-0.4,0.1-0.6,0.2c-0.2,0.1-0.4,0.2-0.6,0.3
				c-0.2,0.1-0.5,0.1-0.8,0.2c-0.3,0-0.6,0-0.8,0.1c-0.4,0.1-0.7,0.2-0.9,0.2c-0.4,0.1-0.8,0.2-1.2,0.3c-0.4,0.1-0.8,0.2-1.2,0.1
				c-0.4-0.1-0.8-0.2-1.1-0.6s-0.5-1-0.7-2.1c0-0.2,0-0.5,0-0.7c0-0.2,0-0.5,0-0.7c-0.2-0.8-0.4-1.6-0.6-2.4
				c-0.2-0.8-0.4-1.6-0.3-2.2c0.1-1,0.1-1.8,0.1-2.1c0-0.3,0-0.7,0.2-1.1c0.3-0.4,0.7-0.8,1.1-1.1c0.4-0.3,0.8-0.5,1.3-0.7
				c0-0.3,0-0.6-0.1-1c-0.1-0.3-0.1-0.7-0.1-1.1c0.1-0.2,0.1-0.4,0.1-0.7c0-0.3,0.2-0.5,0.3-0.6c0.2-0.3,0.1-1.2,0.1-1.7
				c0-0.5-0.1-1.1-0.2-1.6c-0.1-0.4-0.3-0.8-0.5-1.1c-0.2-0.3-0.4-0.8-0.5-1.4c-0.1-0.4-0.1-1-0.1-1.5c0-0.6,0-1.2-0.1-1.8
				c-0.1-0.9-0.2-1.5-0.1-1.8c0.1-0.3,0.1-0.6,0.2-0.8c-0.1-0.8-0.1-1.4,0-1.6c0-0.2,0.1-0.6,0.1-1c0-0.7-0.1-1.3-0.1-1.9
				c0-0.6-0.1-1.3-0.2-2.1c-0.1-0.3-0.1-0.6-0.2-0.9c0-0.3-0.1-0.7-0.2-0.9c-0.1-0.4-0.3-0.8-0.5-1.1c-0.2-0.3-0.4-0.6-0.5-1
				c-0.2-0.6-0.3-1.2-0.4-1.7c-0.1-0.6-0.2-1.2-0.3-1.8c-0.1-0.7-0.2-1.4-0.3-2.2c-0.1-0.8-0.2-1.6-0.3-2.4
				c-0.1-1.1-0.2-2.2-0.4-2.9c-0.2-1-0.4-1.7-0.5-2c0-0.3-0.1-0.5-0.3-0.6c-0.3,0.3-0.7,0.5-1,0.7c-0.4,0.2-0.8,0.3-1.1,0.1
				c-0.3-0.2-0.6-0.6-0.9-0.9c-0.3-0.3-0.6-0.9-0.8-1.9c-0.1-0.6-0.2-1.3-0.2-2c0-0.7,0-1.5-0.1-2.3c-0.1-0.9-0.2-1.8-0.3-2.5
				c-0.1-0.7-0.2-1.5-0.2-2.2c0-0.5,0.1-1,0.2-1.2c0.1-0.3,0.2-0.5,0.3-0.8c0.5-0.3,1-0.6,1.6-0.8c0.5-0.2,1.5-0.2,1.7,0
				c0.3,0.3,0.5,1.1,0.8,1.3c0.4,0.2,0.7,0.1,0.9-0.2c0.1-0.1,0.1-0.3,0.2-0.5s0.1-0.4,0.1-0.6c0.3-0.4,0.6-0.6,0.9-0.5
				c0.3,0.1,0.7-0.2,1-0.3c0.3-0.1,1,0,1.4-0.1c0.5-0.1,0.9-0.2,1.4-0.3c0.2-0.1,0.3-0.1,0.5-0.1c0.1,0,0.3,0.1,0.5,0.4
				c0.3,1.4,0.8,2,1.6,1.7c0.1,0,0.2-0.1,0.3-0.3c0.1-0.1,0.2-0.3,0.3-0.5c0.2-0.1,0.4-0.1,0.6-0.2c0.4-0.3,0.8-0.4,1-0.3
				c0.2,0.1,0.4,0.2,0.6,0.1c0.3-0.1,0.5-0.4,0.8-0.7c0.2-0.2,0.4-0.5,0.5-0.8c0.1-0.3,0.2-0.6,0.4-0.8c0.2,0,0.5-0.1,0.8-0.2
				c0.3-0.1,0.5-0.2,0.7-0.2c0.6,0,1,0.1,1.4,0.4c0.5,0.4,0.6,1.1,0.7,1.9c0.1,0.6,0.4,1.6,0.5,2.5c0.2,1,0.3,1.9,0.4,2.8
				c0.1,0.9,0.1,1.8,0.1,2.5c0,0.8-0.1,1.4-0.4,1.8c-0.2-0.1-0.3,0-0.5,0.2c-0.1,0.2-0.2,0.4-0.4,0.5c-0.3,0.3-0.6,0.4-0.9,0.4
				c-0.3,0-0.7,0.2-1,0.3c0,0.5,0.1,1,0.1,1.4c0,0.4,0.1,0.7,0.3,1c0.1,1.2,0.2,2.3,0.3,3.2s0.3,1.8,0.3,2.7s0.1,1.7,0.1,2.5
				c0,0.8-0.1,1.4-0.3,2c0,0.9,0,1.7,0.2,2.5c0.1,0.8,0.3,1.5,0.5,2.2c0.2,0.7,0.4,1.4,0.6,2.2c0.2,0.7,0.4,1.5,0.5,2.3
				c0.1,0.4,0.1,0.7,0.2,1.1c0,0.4,0,0.8,0.1,1.2c0.3,2.2,0.7,4.4,1.2,6.7c0.5,2.3,0.8,4.8,1,7.4c0.4,0.1,0.8,0,1.1-0.1
				c0.3-0.2,0.7-0.2,1.1,0c0.1,0.1,0.2,0.2,0.4,0.3c0.1,0.1,0.2,0.1,0.3,0.2c0.3,0.1,0.5,0.2,0.7,0.2c0.2,0,0.3,0.3,0.5,0.9
				c0.1,0.1,0.1,0.3,0.2,0.6c0.1,0.3,0.1,0.6,0.2,0.9c0.1,0.6,0.2,1.1,0.2,1.5C368.1,460.2,368.2,460.6,368.2,461.1z M342.9,404.5
				c-0.2,0-0.4,0-0.5,0.1c-0.2,0.1-0.3,0.1-0.5,0.1c-0.2,0-0.3-0.1-0.4-0.3c-0.1-0.2-0.2-0.6-0.3-1.2c0.2-0.5,0.4-0.8,0.6-0.9
				s0.4-0.2,0.5-0.3c0.4,0.1,0.7,0.5,0.9,1.3C343.1,403.9,343.1,404.3,342.9,404.5z M346.5,423.3c0.4,0,0.6-0.2,0.7-0.4
				s0.2-0.5,0.3-0.7c-0.1-0.8-0.1-1.7,0-2.6c0.1-0.9,0-1.7-0.1-2.5c-0.1-0.6-0.3-1-0.4-1.3c-0.2-0.3-0.3-0.8-0.5-1
				c-0.2-0.2-0.9-0.2-1.3-0.4c-0.4-0.2-0.7,0.2-0.9,1.1c0.1,0.3,0.2,0.4,0.3,0.4c0.1,0,0.3,0,0.4,0.1c0.2,0.2,0.5,0.6,0.7,1.4
				c0.2,0.5,0.3,1,0.3,1.4c0,0.5,0.1,0.9,0.1,1.4c0,0.5,0.1,1.1,0.2,1.6C346.5,422.3,346.5,422.9,346.5,423.3z M349,429.6
				c0-0.5-0.1-1.1-0.1-1.6c0-0.5-0.2-0.9-0.4-1.2c-0.1-0.2-0.3-0.3-0.5-0.2c-0.2,0-0.4,0.2-0.5,0.3c-0.1,0.3,0,0.8,0.1,1.2
				c0.1,0.4,0.2,0.8,0.2,1.2C348.2,429.7,348.6,429.8,349,429.6z M349.4,475.7c0.2-0.1,0.5-0.4,1-0.4c0.5-0.1,0.8,0.2,1.1,0.7
				c-0.7,1.1-1.3,1.8-2,2.2c-0.7,0.4-1.3,0.4-1.9,0.1c-0.5-0.3-0.9-0.9-1-1.8c-0.1-0.9-0.2-1.7-0.3-2.5c0-0.5-0.1-1.1-0.2-1.8
				c-0.1-0.6-0.2-1.2-0.2-1.8c0-0.5,0-1,0-1.4c0.1-0.4,0.2-0.6,0.5-0.7c0.2,0.2,0.4,0.6,0.5,1.1c0.1,0.5,0.2,1,0.3,1.5
				c0.1,0.5,0.1,1,0.1,1.5c0,0.5,0.1,0.9,0.1,1.3c0.2,1,0.4,1.5,0.8,1.7C348.4,475.8,349.1,475.9,349.4,475.7z M350.8,469.1
				c0.2-0.1,0.3-0.4,0.4-0.7c0.1-0.3,0.2-0.6,0.1-0.9c0-0.2-0.2-0.4-0.5-0.6c-0.3-0.2-0.5-0.4-0.7-0.5c-0.2-0.1-0.3,0-0.4,0.1
				c0,0.2-0.2,0.3-0.3,0.5c0,0.4,0,0.7,0,1c0,0.3,0,0.7,0.1,1.2c0.4,0,0.7,0,0.8,0.1C350.5,469.3,350.7,469.2,350.8,469.1z
				 M363.5,413.1c0.2,0.3,0.3,0.7,0.4,1.2c0.1,0.5,0.1,1,0.1,1.5c0,0.5,0,1.1,0,1.6c0,0.5,0,0.9,0.1,1.3c-0.1,0.1-0.1,0.2-0.2,0.4
				c-0.1,0.1-0.2,0.3-0.3,0.4c-0.1,0.1-0.3,0-0.5,0c-0.2-0.1-0.3-0.1-0.5,0c-0.4-0.1-0.6-0.3-0.7-0.6c-0.1-0.3-0.1-0.6-0.2-0.9
				c0.5-0.4,0.9-1.1,1.1-2.1c0-0.4,0-0.9,0-1.4c-0.1-0.6-0.1-1-0.1-1.4c0.1-0.3,0.2-0.4,0.4-0.3
				C363.3,412.8,363.4,412.9,363.5,413.1z M363.2,410.7c-0.2,0.5-0.3,0.6-0.5,0.1c-0.2-0.5-0.3-0.9-0.3-1.5c0.1-0.3,0.2-0.5,0.3-0.5
				c0.2,0,0.3,0.2,0.4,0.5c0.1,0.2,0.1,0.4,0,0.6C363.1,410.1,363.1,410.3,363.2,410.7z M364,451.4c-0.2-1-0.3-2-0.5-2.9
				c-0.1-0.9-0.3-1.9-0.4-3.1c-0.1-0.7-0.2-1.3-0.3-1.9c-0.1-0.6-0.1-1.1-0.2-1.6c-0.1-0.4-0.1-0.9,0-1.5c0.1-0.6,0.2-0.7,0.5-0.4
				c0.1,0.1,0.1,0.3,0.2,0.6c0,0.3,0.1,0.5,0.2,0.6c0.1,1.3,0.4,2.7,0.7,4.2c0.3,1.5,0.7,2.8,1,3.9c0.2,0.2,0.4,0.5,0.6,0.7
				c0.2,0.2,0.4,0.3,0.7,0.2c0.2,0.2,0.4,0.6,0.4,1.1c0,0.5,0,0.9-0.2,1.1c-0.4-0.1-0.8-0.1-1.2-0.1c-0.4,0-0.8-0.1-1.1-0.4
				C364.2,451.7,364.1,451.6,364,451.4z"/>
			<path class="st3" d="M370.1,424.9c-0.2,0.2-0.7,0.1-0.8-0.1c-0.2-1-0.4-1.9-0.6-2.8c-0.2-0.8-0.4-1.7-0.5-2.5
				c-0.1-0.9-0.2-1.5-0.2-1.7c-0.1-0.2-0.1-0.5-0.2-0.9c-0.1-0.4-0.1-0.7-0.1-0.9c0-0.2-0.1-0.5-0.1-0.8c-0.1-0.3-0.1-0.5-0.2-0.7
				c-0.1-0.2-0.1-0.4-0.1-0.6c-0.1-0.3-0.1-0.8-0.1-1.2c0-0.5,0-0.9-0.1-1.2c0-0.3,0.1-0.6,0.2-0.9c0.1-0.3,0.4-0.2,0.5,0.1
				c0.2,0.5,0.2,1.3,0.4,2c0.1,0.7,0.3,1.4,0.4,2.2c0.1,0.6,0.2,1.3,0.3,1.9c0.1,0.6,0.2,1.1,0.4,1.5c0.5,1,0.8,1.9,0.9,2.7
				c0.1,0.8,0.2,1.5,0.2,2.1c0,0.5,0,0.8,0,1.1C370.3,424.3,370.2,424.8,370.1,424.9z M409.1,448.7c-0.1,0.2-0.2,0.5-0.3,0.8
				c-0.1,0.3-0.2,0.6-0.3,0.8c-0.2,0.2-0.5,0.4-0.8,0.5c-0.3,0.1-0.6,0.3-0.9,0.5c-0.3,0.2-0.6,0.4-0.8,0.6
				c-0.2,0.3-0.5,0.4-0.8,0.3c-0.1,0-0.2-0.1-0.3-0.2c-0.1-0.1-0.2-0.2-0.3-0.2c-0.6-0.1-0.9-0.1-1.2-0.1c-0.2,0-0.5,0.2-0.7,0.5
				c-0.1,0.1-0.2,0.3-0.2,0.4c-0.1,0.2-0.2,0.4-0.3,0.6c-0.2,0.2-0.4,0.4-0.6,0.5c-0.2,0.1-0.4,0.2-0.6,0.2c-0.2,0-0.4,0.1-0.6,0.2
				c-0.2,0.1-0.4,0.3-0.6,0.6c-0.5-0.1-1.1,0-1.7,0.2c-0.6,0.2-0.8,1.2-1.1,1.8c-0.1,0.2-0.5,0.5-0.9,0.5c-0.3,0.1-0.7,0.2-1,0.4
				c-0.1,0.1-0.2,0.1-0.3,0.3c-0.1,0.1-0.2,0.2-0.2,0.2c-0.3,0.1-0.6,0.1-0.7,0.2c-0.1,0.1-0.3,0.2-0.4,0.3c-0.6,0.1-1,0.3-1.3,0.5
				c-0.3,0.2-0.5,0.3-0.8,0.3c-0.2,0-0.4-0.1-0.5-0.3c-0.2-0.2-0.3-0.4-0.5-0.5c-0.2-0.2-0.4-0.3-0.6-0.4c-0.2-0.1-0.4,0-0.6,0.3
				c-0.1,0.1-0.2,0.3-0.3,0.7c-0.1,0.3-0.2,0.6-0.3,0.8c-0.1,0.3,0,0.6,0,0.7c0,0.2-0.1,0.4-0.2,0.6c-0.1,0.2-0.3,0.4-0.5,0.4
				c-0.2,0.1-0.4,0.2-0.5,0.3c-0.4,0.3-0.8,0.6-1.1,0.9c-0.3,0.3-0.7,0.4-1.1,0.4c-0.2,0.3-0.4,0.4-0.6,0.4
				c-0.3-0.1-0.4,0.1-0.6,0.5c-0.2,0-0.5,0.1-0.8,0.1c-0.3,0.1-0.5,0.2-0.7,0.5c-0.2-0.1-0.4-0.2-0.5-0.3c-0.1-0.2-0.3-0.4-0.5-0.6
				c-0.1-0.1-0.2-0.2-0.3-0.2c-0.1-0.1-0.2-0.1-0.3-0.2s-0.2-0.3-0.3-0.5c-0.1-0.2-0.2-0.3-0.4-0.4c-0.1-0.5-0.2-0.9-0.5-1.1
				c-0.3-0.2-0.5-0.6-0.6-1c-0.2-0.6-0.5-1.5-0.8-2.8c-0.3-1.3-0.5-2.5-0.7-3.4c-0.3-1.3-0.6-2.8-0.9-4.3c-0.3-1.5-0.6-3-0.8-4.4
				c-0.1-0.6-0.2-1.1-0.4-1.7c-0.2-0.6-0.3-1.2-0.4-1.7c-0.1-0.4-0.1-0.8-0.2-1.1c0-0.3-0.1-0.6-0.2-0.9c0-0.2-0.1-0.4-0.2-0.6
				c-0.1-0.2-0.1-0.4-0.1-0.5c-0.1-0.6-0.1-1.3,0-1.9c0.1-0.6,0-1.5-0.3-2.5c-0.1-0.5-0.3-0.8-0.6-1c-0.3-0.2-0.5-0.5-0.6-1
				c-0.2-0.5-0.3-1.1-0.4-1.9c-0.1-0.8-0.2-1.5-0.3-2.1c-0.1-0.3-0.2-0.6-0.2-0.8c-0.1-0.2-0.1-0.4-0.1-0.6
				c-0.1-0.8-0.2-1.4-0.1-1.9c0.1-0.5,0.1-1.1,0.2-1.9c-0.2-1.5-0.6-2.9-1.1-4.2c-0.1-0.3-0.2-0.5-0.3-0.7c-0.1-0.2-0.2-0.4-0.3-0.6
				c-0.2-0.5-0.3-1-0.4-1.6c-0.1-0.6-0.2-1.2-0.3-1.9c-0.2-1.2-0.5-2.6-0.8-4c-0.3-1.4-0.5-2.9-0.3-3.9c0.1-0.6,0.4-1.3,0.8-1.8
				c0.3-0.5,0.7-1,1-1.4c0.2,0.2,0.4,0.1,0.7,0c0.3-0.2,0.6-0.3,0.8-0.4c0.7-0.2,1.3-0.4,1.8-0.8c0.4-0.3,0.9-0.5,1.3-0.6
				c0.3,0,0.5-0.1,0.7-0.3c0.2-0.2,0.4-0.3,0.7-0.4c0.2-0.1,0.3-0.1,0.5-0.1c0.2,0,0.4-0.1,0.6-0.1c0.5-0.3,0.9-0.6,1.4-0.8
				c0.5-0.2,1-0.4,1.4-0.7c0.2,0.1,0.5,0.2,0.7,0.4c0.2,0.2,0.4,0.6,0.6,1.3c0.1,0.3,0.2,0.7,0.2,1c0,0.3,0.1,0.7,0.1,0.9
				c0.1,0.3,0.2,0.7,0.3,1.2c0.1,0.4,0.2,0.9,0.3,1.5c0,0.2,0.1,0.4,0.1,0.7c0,0.2,0.1,0.5,0.1,0.8c0.1,0.6,0.2,1.2,0.3,1.9
				c0.2,0.7,0.3,1.3,0.5,1.9c0.2,0.8,0.4,1.7,0.5,2.5c0.1,0.9,0.3,1.7,0.6,2.4c0.3,0.8,0.4,1.3,0.4,1.5c0,0.2,0.1,0.4,0.1,0.6
				c0.2,1,0.4,1.9,0.5,2.9c0.2,0.9,0.4,1.8,0.6,2.7c0.2,0.8,0.3,1.3,0.4,1.7c0.1,0.4,0.2,0.8,0.3,1.2c0.1,0.4,0.2,0.8,0.3,1.3
				c0.1,0.4,0.1,0.8,0.1,1.2c0,0.4,0,0.7-0.1,0.9c-0.1,0.2-0.1,0.5-0.1,0.8c0,0.5,0,1.1,0.1,1.8c0.1,0.8,0.2,1.4,0.4,1.9
				c0.1,0.3,0.3,0.6,0.5,0.9c0.2,0.3,0.3,0.6,0.5,0.9c0.2,0.5,0.3,1,0.4,1.5c0.1,0.5,0.2,0.9,0.3,1.4c0.3,1,0.6,2,0.9,3
				c0.3,1,0.6,2.2,0.9,3.5c0.2,0.2,0.5,0.3,0.8,0.4c0.2-0.2,0.4-0.5,0.7-0.6c0.2-0.2,0.5-0.4,0.7-0.6c0.1,0,0.2-0.1,0.3,0
				c0.1,0,0.2,0,0.3-0.1c0.3-0.3,0.4-0.5,0.5-0.5c0.1,0,0.2,0,0.2,0c0.4-0.2,0.7-0.4,1.1-0.7c0.3-0.3,0.6-0.5,0.9-0.6
				c0.3-0.1,0.5-0.2,0.6-0.1c0.1,0.1,0.3,0.1,0.4,0.1c0.1,0.1,0.2,0.1,0.3,0.1c0.1,0,0.2,0,0.3,0c0.1,0.1,0.2,0.2,0.3,0.3
				c0.1,0.1,0.3,0.2,0.4,0.2c0.2,0,0.4,0.1,0.6,0.2c0.2,0.1,0.4,0,0.6-0.3c0.2-0.1,0.3-0.4,0.4-0.7c0.1-0.3,0.3-0.6,0.5-0.8
				c0.1-0.2,0.3-0.3,0.4-0.3s0.2-0.2,0.2-0.5c0.5-0.3,1-0.6,1.5-1c0.5-0.4,1.1-0.6,1.5-0.7c0.4,0,0.8-0.1,0.9-0.3
				c0.1-0.2,0.2-0.3,0.3-0.3c0.3,0,0.5,0.2,0.8,0.6c0.2,0.4,0.5,0.8,0.6,1c0.2,0.5,0.2,1.3,0.4,1.8c0.2,0.5,0.3,1.1,0.6,1.6
				c0.2,0.6,0.4,1.1,0.6,1.7c0.2,0.6,0.3,1.2,0.4,1.9c0,0.4-0.1,0.7-0.2,1C409.1,447.8,409,448.2,409.1,448.7z M371,407.4
				c-0.1,0.8,0,1.5,0.3,2.2c0.2,0.6,0.3,1.6,0.6,2.2c0.1,0.3,0.4,0.6,0.4,0.8c0,0.2,0,0.5,0.1,0.8c0.1,0.3,0.2,0.6,0.4,0.9
				c0.2,0.2,0.4,0.4,0.5,0.4c0.1-0.4,0.1-0.7,0-1.1c-0.1-0.4-0.3-0.7-0.3-1.1c-0.1-0.3-0.2-0.9-0.3-1.8c-0.1-0.8-0.1-1.3,0-1.5
				c0.1-0.2,0.1-0.3,0.2-0.3c0.1,0,0.2-0.1,0.3-0.3c0.2-0.4,0.3-0.9,0.2-1.5c-0.1-0.6-0.3-1.2-0.6-1.6c-0.6,0.4-1,0.6-1.3,0.8
				C371.2,406.4,371.1,406.8,371,407.4z M377.3,407.5c0.3-0.1,0.3-0.5,0.2-1.3c-0.1-0.8-0.3-1.3-0.6-1.6c-0.2-0.1-0.4-0.1-0.7-0.1
				c-0.2,0-0.4,0.1-0.7,0.4c-0.1,0.1-0.2,0.3-0.3,0.6c-0.1,0.3-0.2,0.5-0.2,0.7c0,0.8,0.1,1.3,0.5,1.6c0.3,0.3,0.7,0.4,0.9,0.3
				c0.1-0.1,0.3-0.3,0.5-0.4C377,407.6,377.2,407.5,377.3,407.5z M378,461.9c0.2,1.1,0.5,1.9,0.8,2.4c0.3,0.5,0.7,1,1.1,1.2
				c0.4,0.3,0.8,0.5,1.2,0.7c0.4,0.2,0.8,0.4,1.2,0.7c0.1,0.3,0.1,0.5,0.2,0.7c0.1,0.2,0.1,0.4,0.1,0.5c-0.4,0.5-0.8,0.8-1.2,0.8
				c-0.6-0.3-1.2-0.7-1.7-1.1c-0.5-0.4-1-1.1-1.5-1.9c-0.3-0.7-0.7-1.6-0.9-2.9c-0.3-1.2-0.4-2.4-0.6-3.4c0.4-0.1,0.7,0.2,0.8,0.8
				C377.6,461.1,377.8,461.6,378,461.9z M380.6,447.9c0-0.4-0.2-0.7-0.4-1c-0.2-0.3-0.4-0.6-0.5-0.9c-0.2,0.1-0.3,0.2-0.4,0.3
				c-0.1,0.1-0.3,0.3-0.4,0.4c-0.1,0.2,0,0.9,0.1,1.4c0.1,0.5,0.3,0.9,0.5,1.1c0.3,0,0.5-0.1,0.7-0.3
				C380.5,448.7,380.6,448.3,380.6,447.9z M381.8,396.4c0-0.1-0.1-0.2-0.3-0.3c-0.2-0.1-0.3-0.1-0.5-0.2c-0.1-0.1-0.3-0.2-0.4-0.3
				c-0.1-0.1-0.2-0.3-0.3-0.5c0-0.2,0-0.4,0.1-0.5c0.1-0.1,0.2-0.2,0.3-0.2c0.3-0.2,0.5-0.2,0.8,0c0.3,0.2,0.5,0.3,0.8,0.3
				c0.3,0.3,0.7,0.9,1,2c0.3,1.1,0.6,2,0.7,3c0.1,0.3,0.1,0.6,0.1,1c0,0.4,0.1,0.8,0.1,1.2c0.1,0.4,0.1,0.7,0.2,1.1
				c0.1,0.4,0.2,0.7,0.3,0.9c0.2,0.5,0.5,1,0.8,1.5c0.3,0.5,0.4,1.2,0.3,1.8c-0.1,0.3-0.4,0.5-0.7,0.5c-0.3-0.1-0.5-0.4-0.7-0.9
				c-0.1-0.3-0.1-0.6-0.2-0.9c0-0.3-0.1-0.7-0.1-1c-0.1-0.8-0.4-1.6-0.6-2.5c-0.3-0.9-0.5-1.7-0.6-2.5c-0.1-0.8-0.3-1.4-0.5-1.9
				C382.2,397.2,382,396.7,381.8,396.4z M383.8,458.5c0.2-0.2,0.4-0.8,0.4-1.3c0-0.5-0.1-1-0.4-1.3c-0.2-0.2-0.3-0.3-0.5-0.3
				c-0.2,0-0.4,0.1-0.6,0.1c-0.2,0.1-0.4,0.1-0.6,0c-0.2,0-0.3-0.2-0.4-0.5c-0.1-0.2-0.1-0.4-0.1-0.6c0-0.2,0-0.5,0-0.7
				c-0.1-0.6-0.3-1.1-0.5-1.6c-0.2-0.5-0.4-0.6-0.7-0.3c-0.2,0.2-0.3,0.5-0.3,1.1c0,0.6,0.1,1.1,0.1,1.5c0,0.6,0.1,1,0.1,1.3
				c0,0.2,0,0.4,0,0.7c0,0.3,0,0.5,0.1,0.7c0.1,0.4,0.3,0.8,0.7,1.3c0.3,0.5,0.6,0.7,0.8,0.8c0.3,0,0.6-0.1,1-0.2
				C383.2,458.9,383.6,458.8,383.8,458.5z M391.3,436.2c0.2,0.5,0.5,0.9,0.7,1.2c0.2,0.3,0.5,0.5,0.7,0.8c0.1-0.1,0.3-0.2,0.4-0.1
				c0.1,0,0.3,0,0.5,0c0.1,0,0.4-0.1,0.5-0.2c0.2-0.1,0.3,0,0.5,0.3c0,0.4,0.1,0.6,0.1,0.6c0,0.1,0.1,0.4,0,0.7
				c0,0.2-0.1,0.4-0.2,0.5c-0.1,0.2-0.1,0.4-0.2,0.4c-0.2,0.1-0.7,0.2-0.9,0.5c-0.2,0.3-0.3,0.4-0.6,0.4c-0.2,0-0.5,0-0.8,0
				c-0.3-0.1-0.5-0.2-0.7-0.5c-0.2-0.3-0.3-0.6-0.3-0.9c0-0.3-0.1-0.8-0.2-1.3c-0.2-0.9-0.4-1.7-0.7-2.4c-0.3-0.7-0.5-1.5-0.6-2.5
				c0.1-0.5,0.3-0.7,0.5-0.6c0.3,0.1,0.5,0.3,0.6,0.6c0.1,0.3,0.3,0.7,0.4,1.3C391,435.4,391.1,435.8,391.3,436.2z M411.8,447.3
				c0.5,1.6,0.7,2.9,0.3,4c-0.3,1.1-0.8,1.8-1.6,2.2c-0.2,0.1-0.5,0.2-0.7,0.1c-0.2,0-0.4,0-0.7,0.2c-0.2-0.7-0.1-1.1,0.1-1.3
				c0.3-0.1,0.4-0.4,0.4-0.7c0.5-0.2,0.8-0.7,0.9-1.4c0.1-0.7,0.2-1.5,0.2-2.1c0-0.5-0.2-1.1-0.4-1.7c-0.2-0.6-0.3-1.1-0.3-1.6
				c0-0.5,0.2-0.7,0.3-0.6c0.2,0.1,0.3,0.2,0.5,0.5c0.2,0.3,0.4,0.7,0.5,1.2C411.7,446.6,411.8,447,411.8,447.3z"/>
			<path class="st3" d="M402.9,395.3c0.2,1.5,0.5,3,0.9,4.4c0.4,1.4,0.7,2.8,1,4.2c0.2,1,0.4,2,0.5,3.1c0.1,1,0.2,2.2,0.3,3.3
				c0,0.3,0,0.6,0,1.1s-0.1,0.6-0.2,0.6c-0.1,0-0.2-0.1-0.3-0.3c-0.1-0.2-0.2-0.6-0.3-0.9c-0.1-0.4-0.2-0.7-0.2-1.1
				c-0.1-0.4-0.1-0.7-0.2-0.9c-0.4-1.8-0.6-3.4-0.8-4.8c-0.1-1.4-0.4-3-0.6-4.8c0-0.4-0.1-0.7-0.2-1.1c-0.1-0.4-0.2-0.7-0.2-1.1
				c-0.1-1-0.3-1.9-0.4-2.9c-0.1-0.9-0.2-1.7-0.3-2.5c0.5,0.7,0.7,1.3,0.8,1.9C402.8,394.1,402.9,394.7,402.9,395.3z M446.2,431
				c-0.1,0.1-0.2,0.2-0.4,0.3c-0.2,0.1-0.4,0.2-0.6,0.3c-0.1,0-0.3,0.1-0.5,0.1c-0.2,0.1-0.3,0.1-0.5,0.1c-0.8,0.3-1.6,0.6-2.3,0.9
				c-0.7,0.3-1.4,0.3-2,0c-0.1-0.2-0.3-0.3-0.4-0.4c-0.1-0.1-0.2-0.3-0.4-0.5c-0.1-0.1-0.4-0.3-0.6-0.6c-0.2-0.3-0.4-0.6-0.7-0.9
				c-0.2-0.2-0.4-0.4-0.5-0.6c-0.2-0.1-0.3-0.3-0.5-0.5c-0.1-0.1-0.2-0.3-0.4-0.5c-0.1-0.2-0.3-0.3-0.5-0.5
				c-0.2-0.2-0.3-0.3-0.5-0.5c-0.1-0.1-0.3-0.3-0.4-0.5c-0.1-0.2-0.2-0.5-0.2-0.7c0-0.3-0.1-0.5-0.2-0.6c-0.2-0.4-0.4-0.7-0.6-0.8
				c-0.2-0.2-0.5-0.4-0.7-0.6c-0.2-0.2-0.5-0.4-0.8-0.6c-0.3-0.2-0.6-0.4-0.7-0.6c-0.3-0.3-0.4-0.9-0.5-1.4
				c-0.1-0.5-0.3-0.9-0.5-1.2c-0.3-0.4-0.7-0.6-1.1-0.7c-0.8-0.8-1.6-1.8-2.3-3c-0.7-1.2-1.4-2.2-2.2-3.1c-0.3,0.9-0.6,1.8-0.8,2.7
				c-0.2,0.9-0.5,1.7-0.9,2.4c0.3,2.3,0.7,4.7,1.3,7.1c0.6,2.4,1.2,4.8,1.6,7.2c0.1,0.6,0.2,1.3,0.3,2c0.1,0.7,0.1,1.3-0.1,1.7
				c-0.2,0.3-0.3,0.5-0.3,0.6c0,0.1,0,0.1,0,0.2c-0.3,0.4-0.5,0.7-0.6,0.9c-0.1,0.2-0.2,0.3-0.4,0.4c-0.1,0.1-0.3,0.1-0.4,0
				c-0.1-0.1-0.2-0.1-0.3,0c-0.1,0-0.3,0.1-0.4,0.2c-0.1,0.1-0.2,0.2-0.4,0.3c-0.4,0.3-0.6,0.5-0.8,0.8c-0.1,0.3-0.3,0.5-0.6,0.5
				c-0.2,0-0.4,0-0.6,0c-0.2,0-0.4,0-0.6,0.1c-0.4,0.1-0.9,0.2-1.3,0.4c-0.4,0.2-0.9,0.3-1.2,0.5c-0.2,0.1-0.3,0.2-0.5,0.4
				s-0.3,0.2-0.5,0.3c-0.9,0.1-1.6,0.3-2.2,0.5c-0.6,0.2-1.2,0-1.7-0.7c-0.2-0.5-0.4-0.8-0.5-0.9c-0.1-0.1-0.1-0.2-0.2-0.3
				c-0.2-0.3-0.4-0.8-0.6-1.4c-0.2-0.6-0.3-1.3-0.5-1.8c-0.3-0.9-0.4-1.7-0.4-2.6c0-0.9,0.1-1.7,0.2-2.5c-0.1-0.9-0.3-1.7-0.5-2.4
				c-0.2-0.7-0.5-1.3-0.7-1.8c-0.4-0.7-0.6-1.4-0.6-1.9c-0.1-0.6-0.2-1.1-0.3-1.5c-0.2-0.9-0.4-1.8-0.6-2.8s-0.5-1.9-0.6-2.7
				c0-0.3-0.1-0.7-0.1-1.1c0-0.4-0.1-0.8-0.1-1.2c-0.1-0.4-0.2-0.9-0.3-1.3c-0.2-0.5-0.2-0.9-0.3-1.3c0-0.2-0.1-0.4-0.1-0.7
				c0-0.3,0-0.6,0-0.8c0-0.7,0-1.4,0-2.1c0-0.7,0-1.4-0.1-2.1c-0.1-1.1-0.3-2.3-0.5-3.2c-0.2-1-0.4-2.1-0.7-3.4
				c-0.1-0.8-0.3-1.7-0.7-2.7c-0.3-1-0.6-1.9-1-2.6c-0.3-0.7-0.5-1.2-0.5-1.5c0-0.3-0.1-0.5-0.1-0.7c-0.2-1.3-0.4-2.7-0.7-4.3
				c-0.2-1.5-0.4-2.8-0.5-3.9c0.1-0.4,0.2-0.8,0.4-1.1c0.2-0.3,0.3-0.6,0.5-0.7c0.1-0.1,0.2-0.2,0.4-0.2c0.1,0,0.2,0,0.4-0.1
				c0.4-0.3,0.6-0.4,0.8-0.3c0.2,0,0.4,0.1,0.5,0.1c0.3,0,0.7-0.1,1-0.3c0.4-0.2,0.7-0.3,1-0.4c0.3-0.1,0.6-0.1,0.8,0.3
				c0.2,0.4,0.5,0.7,0.8,1.1c0.1,0.1,0.2,0.2,0.3,0.3c0.1,0.1,0.2,0.2,0.3,0.3c0.1,0.1,0.4,0.2,0.8,0.2c0.4,0.1,0.7,0,0.9-0.2
				c0.2-0.2,0.3-0.4,0.4-0.7c0.1-0.3,0.2-0.5,0.4-0.7c0.3-0.4,0.8-0.7,1.3-0.8c0.5-0.1,1.5-0.2,1.7-0.1c0.1,0.1,0.2,0.6,0.3,0.8
				s0.3,0.4,0.4,0.7c0.2,0.5,0.3,1,0.4,1.5c0.1,0.5,0.2,1.1,0.3,1.7c0.1,0.3,0.2,0.7,0.3,1c0.1,0.3,0.2,0.7,0.3,1.1
				c0.1,0.5,0.2,1.1,0.3,1.6c0.1,0.6,0.2,1.1,0.3,1.6c0.3,1.7,0.6,3.4,0.9,5.1c0.2,1.7,0.6,3.4,1.1,5.2c0.2-0.5,0.4-1,0.5-1.5
				c0.2-0.5,0.3-1,0.5-1.4c0-0.6,0.1-1.1,0.3-1.5c0.2-0.4,0.1-1.4,0.3-1.7c0-0.1,0.3-0.2,0.3-0.4c0-0.2,0.1-0.4,0.2-0.6
				c0.1-0.2,0.1-0.3,0.2-0.5c0.1-0.2,0.1-0.4,0.1-0.6c0.2-0.9,0.3-1.4,0.4-1.6c0.1-0.2,0.1-0.8,0.2-1c0.1-0.1,0.5-0.3,0.7-0.4
				c0.2-0.1,0.4-0.3,0.6-0.5c0-0.1,0.1-0.2,0.1-0.4c0-0.2,0.1-0.3,0.2-0.5c0.1-0.2,0.2-0.4,0.3-0.6c0.1-0.2,0.2-0.5,0.1-0.9
				c-0.1-1.1-0.2-1.8,0-2c0.1-0.2,0.2-0.5,0.2-0.9c0-0.5,0.1-0.9,0.2-1.1c0.1-0.2,0.1-0.4,0.2-0.5c0.1-0.5,0.2-0.9,0.3-1.2
				c0.1-0.3,0.3-0.7,0.4-1.2c0.1-0.2,0.2-0.4,0.2-0.6c0.1-0.3,0.1-0.4,0.2-0.5c0.3-0.2,0.5-0.4,0.5-0.5c0-0.1,0.1-0.1,0.1-0.1
				c0.1-0.1,0.3-0.2,0.4-0.1c0.2,0,0.3,0,0.5,0c0.3-0.1,0.6-0.1,0.9-0.2c0.3-0.1,0.6-0.2,1-0.2c0.2,0,0.4,0,0.6-0.1
				c0.2-0.1,0.4-0.2,0.5-0.2c0.3-0.1,0.7-0.1,1,0c0.3,0,0.6-0.1,0.9-0.4c0.2,0.1,0.4,0.1,0.6,0c0.2-0.1,0.4-0.1,0.7,0
				c0.2,0,0.4,0.3,0.6,0.7c0.2,0.4,0.2,0.7-0.1,1c-0.2,1-0.5,2-0.7,2.9c-0.2,0.9-0.5,1.9-0.9,2.7c0,0.4-0.1,0.7-0.2,0.9
				c-0.1,0.3-0.1,0.6-0.1,0.9c0,0.2-0.2,0.5-0.3,0.8c-0.1,0.3-0.2,0.6-0.3,0.9c-0.1,0.2-0.1,0.3-0.2,0.5c0,0.2-0.1,0.3-0.2,0.4
				c-0.1,0.1-0.3,0.2-0.4,0.1c-0.1,0-0.3,0-0.4,0.1c-0.3,0.4-0.4,0.5-0.5,0.5c-0.1,0-0.1,0-0.2,0c-0.2,0.6-0.3,1-0.3,1
				c0,0.1-0.1,0.2-0.1,0.3c0,0.2,0,0.5,0.1,0.8c0.1,0.3,0.1,0.6,0.1,0.8c0,0.2,0,0.4-0.1,0.6c0,0.2-0.1,0.4-0.1,0.5
				c0,0.2-0.1,0.4-0.1,0.6c0,0.2,0,0.4-0.1,0.6c-0.2,0.6-0.4,1.2-0.7,1.8c-0.2,0.6-0.3,1.4-0.4,2.1c-0.1,0.4-0.4,1-0.5,1.5
				c-0.2,0.5-0.3,1-0.4,1.5c0.9,1.6,1.8,2.9,2.7,4c0.4,0.4,0.6,0.6,0.6,0.7c0,0.1,0.1,0.2,0.2,0.3c0.2,0.2,0.4,0.5,0.6,0.8
				c0.2,0.3,0.4,0.6,0.6,0.8c0.5,0.8,1.1,1.5,1.7,2.2c0.6,0.7,1.1,1.5,1.6,2.4c0.2,0.1,0.4,0.3,0.5,0.5c0.2,0.2,0.3,0.4,0.5,0.6
				c0.3,0.3,0.5,0.5,0.7,0.8c0.2,0.3,0.4,0.5,0.7,0.8c0.3,0.3,0.5,0.5,0.8,0.7c0.2,0.2,0.5,0.4,0.6,0.7c0.1,0.1,0.2,0.3,0.3,0.5
				c0.1,0.2,0.2,0.4,0.4,0.7c0.2,0.3,0.4,0.6,0.6,0.8s0.4,0.6,0.5,0.9c0.1,0.3,0.1,0.6,0.2,0.9c0,0.3,0.1,0.7,0.3,1.1
				c0.5,0.6,1.1,0.9,1.7,1c0.6,0.1,1.2,0.3,1.9,0.6c0.2,0.3,0.5,0.7,0.8,1.1c0.3,0.4,0.4,0.9,0.4,1.5c0,0.3-0.1,0.6-0.3,1.1
				C446.5,430.5,446.3,430.8,446.2,431z M404.8,389.9c0.1,0.7,0.3,1.4,0.6,2.1c0.3,0.7,0.5,1.1,0.7,1.1c0.1,0,0.3,0,0.3-0.2
				c0.1-0.1,0.2-0.3,0.3-0.5c0-0.4,0-0.9,0-1.4c0-0.5,0.1-1.1,0-1.6c0-0.4,0-0.7,0-1.1c0-0.4,0-0.6-0.1-0.7
				c-0.1-0.3-0.2-0.5-0.3-0.4c-0.1,0-0.3,0.2-0.3,0.4c-0.2-0.2-0.4-0.3-0.5-0.1c-0.2,0.2-0.3,0.3-0.5,0.4c0,0.3-0.1,0.6-0.1,0.8
				C404.8,389.1,404.8,389.4,404.8,389.9z M405.5,414.7c0.1-0.2,0.3-0.2,0.6-0.1c0.2,0.2,0.4,0.4,0.5,0.7c0.1,0.3,0.2,0.7,0.3,1.2
				c0.1,0.4,0.1,0.9,0.1,1.3c0,0.4,0,0.8-0.1,1.1c0,0.3-0.1,0.5-0.2,0.5c-0.2,0.1-0.5-0.2-0.7-0.8c-0.2-0.5-0.3-1.1-0.4-1.7
				c-0.1-0.5-0.2-1-0.3-1.4C405.2,415.3,405.3,415,405.5,414.7z M408.6,400.1c0-0.1-0.1-0.3-0.1-0.5c-0.1-0.2-0.1-0.5-0.2-0.7
				c-0.1-0.7-0.2-1.2-0.4-1.3c-0.1-0.1-0.2-0.4-0.2-0.5c-0.1-0.1-0.5,0.2-0.5,0.6c0,0.5,0,1,0.1,1.5c0.1,0.6,0.3,1.1,0.5,1.5
				c0.2,0.4,0.4,0.6,0.6,0.4c0,0,0.1-0.1,0.1-0.4C408.6,400.6,408.7,400.3,408.6,400.1z M416.8,438.9c0.2-0.1,0.4-0.5,0.4-1.1
				c0.1-0.6,0.1-1.3-0.1-1.6c-0.1-0.2-0.6-0.2-1,0c-0.3,0.2-0.6,0.1-0.8-0.3c-0.1-0.3-0.2-0.7-0.3-1.1c-0.1-0.5-0.2-0.7-0.5-0.7
				c-0.2,0.4-0.3,1-0.1,1.7c0.1,0.8,0.1,1.4,0,1.9c0.1,0.4,0.3,0.7,0.4,1.1c0.1,0.4,0.3,0.6,0.5,0.6c0.2,0,0.3-0.2,0.3-0.4
				c0-0.3,0.1-0.4,0.3-0.5c0.1,0,0.2,0,0.4,0.2C416.5,438.9,416.6,439,416.8,438.9z M415.7,380.6c-0.1,0-0.2,0-0.4,0
				c-0.2,0-0.3,0-0.5-0.1c-0.2-0.1-0.3-0.1-0.4-0.3c-0.1-0.1-0.2-0.3-0.2-0.6c0-0.3,0-0.4,0.2-0.4c0.2,0,0.3,0.1,0.5,0.2
				c0.1-0.1,0.3-0.2,0.5-0.1c0.2,0,0.4,0.1,0.6,0.2c0.1-0.2,0.3-0.3,0.5-0.1c0.3,0.2,0.5,0.4,0.6,0.4c0.1,0,0.2,0.1,0.3,0.2
				c0.4,0.8,0.7,1.6,0.9,2.2c0.2,0.6,0.3,1.2,0.4,1.9c0.1,0.6,0.1,1.2,0.1,1.7c0,0.5-0.2,0.9-0.4,1.2c-0.3-0.3-0.4-0.7-0.5-1.3
				c-0.1-0.6-0.2-1.2-0.4-1.8c-0.2-0.7-0.5-1.3-0.8-1.7C416.3,381.7,416,381.2,415.7,380.6z M422,409c0.2-0.5,0.3-1.2,0.5-1.9
				c0.2-0.7,0.3-1.4,0.3-2c-0.5-0.2-0.8-0.1-0.9,0.3c-0.1,0.4-0.2,0.9-0.3,1.3c-0.1,0.4-0.3,0.8-0.4,1.1c-0.2,0.3-0.5,0.5-0.9,0.5
				c-0.1,0.9,0,1.6,0.3,2.1c0.2,0.4,0.5,0.6,0.7,0.5c0-0.1,0.1-0.2,0.2-0.4c0.1-0.2,0.1-0.3,0.2-0.5
				C421.7,409.8,421.8,409.4,422,409z M424.5,402c0-0.3-0.1-0.6-0.2-0.8c-0.1-0.2-0.2-0.4-0.2-0.7c-0.3,0.2-0.4,0.3-0.4,0.3
				c0,0-0.1,0-0.1,0c-0.1,0.2-0.1,0.4-0.2,0.6c-0.1,0.3,0,0.6,0.1,1c0.1,0.4,0.4,0.6,0.6,0.5C424.3,402.9,424.5,402.6,424.5,402z
				 M428.5,434.2c0.2,0.6,0.4,1.1,0.4,1.7c0,0.5,0.1,1.1,0.2,1.7c0.1,0.5,0.2,1,0.4,1.6c0.1,0.5,0.2,1,0,1.3
				c-0.1,0.3-0.3,0.6-0.6,0.9c-0.3,0.4-0.6,0.5-0.9,0.6c-0.1,0-0.3,0.1-0.4,0.1c-0.1,0-0.3-0.1-0.4-0.1c-0.2,0-0.4-0.1-0.6-0.1
				c-0.2-0.1-0.3-0.4-0.3-1c0.2,0,0.4,0,0.6-0.1c0.2-0.1,0.3-0.4,0.3-0.7c0.2-0.2,0.3-0.2,0.5-0.2c0.1,0,0.3-0.1,0.4-0.2
				c0.1-0.4-0.1-1.4-0.1-2.3c0-0.8-0.1-1.7-0.3-2.6c0-0.2-0.1-0.4-0.1-0.6c-0.1-0.2-0.1-0.4-0.1-0.6c0.2-0.2,0.5-0.2,0.6,0
				S428.3,433.9,428.5,434.2z M426.8,429.4c0.1-0.3,0.3-0.4,0.6-0.1c0.2,0.2,0.3,0.5,0.3,0.9c0,0.4,0,0.8,0.2,1.3
				c-0.2,0.4-0.3,0.5-0.5,0.4c-0.1-0.1-0.3-0.3-0.4-0.5c-0.1-0.3-0.2-0.6-0.3-1C426.8,430,426.8,429.7,426.8,429.4z M434,392.3
				c0.1-0.2,0.2-0.4,0.3-0.8c0.1-0.4,0.2-0.6,0.3-0.6c0.2,0,0.4,0.2,0.4,0.7c-0.1,0.5-0.1,0.8-0.2,0.9c-0.1,0.2-0.1,0.3-0.2,0.4
				c-0.1,0.1-0.2,0.3-0.3,0.5c-0.2,0.5-0.3,0.9-0.4,1.3c-0.1,0.4-0.2,0.9-0.4,1.3c-0.1,0.2-0.2,0.4-0.3,0.6
				c-0.1,0.2-0.4,0.3-0.4,0.2c-0.1-0.2-0.2-0.7-0.3-0.9c-0.1-0.3-0.2-0.6-0.3-1c0.1-0.4,0.2-0.8,0.3-1c0.1-0.3,0.3-0.6,0.5-0.8
				c0.2-0.1,0.5-0.2,0.6-0.3C433.8,392.7,433.9,392.5,434,392.3z M437.6,378.1c0.1,0.2,0.3,0.7,0.6,1.2c0.3,0.5,0.3,0.9,0.1,1.1
				c0,0.4,0,0.7-0.1,0.9c-0.1,0.2-0.2,0.4-0.3,0.6c-0.1,1-0.3,1.8-0.7,2.5c-0.4,0.7-0.6,1.5-0.7,2.4c-0.1,0.1-0.4,0.2-0.6,0.3
				c-0.2-0.6-0.1-1.1,0.1-1.4c0.2-0.3,0.4-0.7,0.4-1c0.1-0.6,0.1-1.2,0.3-1.5c0.1-0.3,0.2-0.6,0.2-1c0.1-0.7,0.1-1.3,0.2-1.6
				c0.1-0.3,0.1-0.6,0.1-0.9c0-0.2-0.1-0.3-0.3-0.5c-0.1-0.2-0.3-0.3-0.4-0.5c-0.1-0.2-0.2-0.3-0.3-0.5c-0.1-0.1,0-0.3,0.1-0.4
				c0.3,0,0.5,0,0.7,0C437.2,378,437.5,378,437.6,378.1z M449.3,427.5c0,0.3,0.1,0.6,0.4,0.8c0.2,0.2,0.4,0.5,0.5,0.7
				c0,0.5-0.1,1.1-0.2,1.7c-0.1,0.6-0.3,1.1-0.6,1.3c-0.3,0.3-0.7,0.5-1,0.7c-0.2,0.2-0.4,0.4-0.7,0.5c-0.2,0.1-0.6,0.2-1,0.4
				c-0.4,0.2-0.6,0.2-0.8-0.1c0.3-0.8,0.7-1.2,1-1.3c0.3-0.1,0.7-0.3,0.8-0.6c0.2-0.4,0.3-0.9,0.5-1.2c0.1-0.2,0.2-0.5,0.3-0.9
				c0-0.3,0-0.6,0-0.9c0-0.3,0-0.6,0.1-0.8c-0.1-0.4-0.2-0.8-0.4-1.2c-0.2-0.4-0.1-0.6,0.2-0.6c0.1,0,0.3,0.2,0.5,0.5
				c0.2,0.3,0.3,0.6,0.4,0.8C449.2,427.5,449.2,427.5,449.3,427.5z"/>
			<path class="st3" d="M438.7,372.5c-0.4-0.1-0.7,0-0.9,0.2c-0.2,0.2-0.5,0.5-0.7,0.8c0,0.1,0,0.3,0,0.6c0,0.3,0,0.5,0,0.8
				c0,0.3,0.1,0.6,0.1,0.9c0,0.3,0.1,0.6,0.1,0.8c0.1,0.3,0.1,0.6,0.2,0.9c0.1,0.3,0.1,0.5,0,0.7c-0.8-0.3-1.2-1.1-1.4-2.4
				c0-0.2-0.1-0.4-0.1-0.6c0-0.2-0.1-0.5-0.1-0.7c-0.1-0.5-0.2-0.9-0.3-1.3c-0.1-0.4-0.1-0.7,0-1c0.1-0.3,0.2-0.5,0.4-0.6
				c0.2,0,0.4-0.1,0.6-0.1c0.4-0.4,0.8-0.5,1-0.3c0.2,0.2,0.5,0.3,0.7,0.2C438.7,372,438.8,372.4,438.7,372.5z M470.7,410.2
				c0.1,0.3,0.2,0.6,0.4,0.8c0.2,0.2,0.3,0.4,0.4,0.7c0.2,0.4,0.3,0.9,0.3,1.3c0,0.4,0.1,0.8,0.1,1.1c-0.1,0.1-0.1,0.3-0.2,0.4
				c-0.1,0.1-0.1,0.3,0,0.5c-0.3,0.2-0.5,0.4-0.7,0.7c-0.4,0.1-0.8,0.3-1.1,0.4c-0.3,0.2-0.7,0.3-1,0.5c-0.1,0.1-0.3,0.2-0.5,0.2
				c-0.2,0.1-0.4,0.1-0.6,0.1c-0.6-0.1-1.3-0.2-1.9-0.3c-0.6-0.1-1.2,0-1.8,0.5c-0.1,0.1-0.2,0.2-0.3,0.3c-0.1,0.1-0.2,0.2-0.3,0.1
				c-0.2,0.3-0.4,0.6-0.7,0.7c-0.3,0.1-0.4,0.4-0.6,0.7c-0.4,0.3-0.7,0.7-1.1,1c-0.3,0.3-0.7,0.6-1.2,0.8c-0.2,0.1-0.4,0.2-0.6,0.3
				c-0.2,0.1-0.4,0.3-0.5,0.3c-0.2,0.1-0.5,0.2-0.7,0.3c-0.2,0.1-0.5,0.2-0.8,0.3c-0.3,0.2-0.6,0.3-0.8,0.4
				c-0.4,0.2-0.7,0.3-1.1,0.6c-0.4,0.2-0.8,0.4-1.1,0.4c-0.4,0.1-0.7,0-1.1-0.1c-0.3-0.2-0.6-0.6-0.9-1.4c-0.1-0.2-0.1-0.3-0.1-0.5
				c0-0.2,0-0.4-0.1-0.5c-0.3-0.6-0.5-1.1-0.8-1.7c-0.3-0.6-0.5-1.1-0.5-1.6c0-0.8,0-1.4-0.1-1.6c0-0.3,0-0.5,0.1-0.8
				c0.3-0.4,0.6-0.8,0.9-1.1c0.3-0.3,0.7-0.6,1.2-0.8c0-0.2-0.1-0.5-0.2-0.7c-0.1-0.2-0.2-0.5-0.2-0.8c0.1-0.2,0.1-0.3,0.1-0.6
				c0-0.2,0.1-0.4,0.2-0.5c0.1-0.3,0-0.9-0.1-1.3c0-0.4-0.2-0.8-0.4-1.2c-0.2-0.3-0.4-0.5-0.6-0.7c-0.2-0.2-0.4-0.5-0.6-0.9
				c-0.1-0.3-0.2-0.7-0.3-1.1c-0.1-0.4-0.1-0.9-0.3-1.3c-0.2-0.6-0.3-1.1-0.3-1.3c0-0.2,0.1-0.5,0.1-0.6c-0.1-0.6-0.2-1-0.2-1.2
				c0-0.2,0-0.5,0-0.7c-0.1-0.5-0.2-1-0.3-1.4c-0.1-0.4-0.2-1-0.4-1.6c-0.1-0.2-0.2-0.4-0.2-0.7c-0.1-0.3-0.2-0.5-0.3-0.7
				c-0.2-0.3-0.4-0.6-0.6-0.7c-0.2-0.2-0.4-0.4-0.5-0.7c-0.2-0.4-0.4-0.8-0.6-1.3c-0.2-0.4-0.3-0.9-0.4-1.3
				c-0.1-0.5-0.3-1.1-0.5-1.6c-0.2-0.6-0.4-1.2-0.5-1.8c-0.2-0.8-0.4-1.6-0.7-2.2c-0.3-0.7-0.6-1.2-0.6-1.5
				c-0.1-0.2-0.2-0.4-0.3-0.4c-0.3,0.2-0.6,0.5-0.9,0.7c-0.3,0.2-0.8,0.3-1,0.2c-0.3-0.1-0.6-0.4-1-0.6c-0.3-0.2-0.7-0.7-1-1.4
				c-0.2-0.4-0.3-1-0.4-1.6c-0.1-0.6-0.2-1.2-0.3-1.8c-0.2-0.7-0.3-1.4-0.5-2c-0.2-0.6-0.3-1.2-0.4-1.7c-0.1-0.4,0-0.8,0.1-1
				c0.1-0.2,0.2-0.4,0.2-0.7c0.5-0.3,0.9-0.5,1.4-0.7c0.5-0.2,1.4-0.3,1.6-0.1c0.2,0.2,0.5,0.8,0.9,0.9c0.4,0.1,0.7,0.1,0.9-0.2
				c0.1-0.1,0.1-0.2,0.1-0.4c0-0.2,0-0.3,0-0.4c0.2-0.3,0.5-0.5,0.8-0.5c0.3,0,0.7-0.2,0.9-0.3c0.3-0.1,0.9-0.1,1.4-0.2
				c0.4-0.1,0.9-0.2,1.3-0.3c0.2,0,0.3-0.1,0.4-0.1c0.1,0,0.3,0.1,0.5,0.3c0.4,1,1,1.4,1.7,1.2c0.1,0,0.2-0.1,0.3-0.2
				c0.1-0.1,0.1-0.2,0.2-0.4c0.2-0.1,0.3-0.1,0.6-0.2c0.4-0.2,0.7-0.3,0.9-0.2c0.2,0.1,0.4,0.1,0.5,0.1c0.3-0.1,0.5-0.3,0.7-0.5
				c0.1-0.2,0.3-0.4,0.4-0.6c0.1-0.2,0.2-0.4,0.3-0.6c0.2,0,0.5-0.1,0.7-0.2c0.2-0.1,0.5-0.1,0.7-0.1c0.5,0,1,0.1,1.3,0.2
				c0.5,0.3,0.7,0.8,0.8,1.3c0.1,0.4,0.5,1.1,0.7,1.7c0.3,0.7,0.5,1.3,0.6,1.9c0.2,0.6,0.3,1.2,0.3,1.8c0.1,0.6,0,1-0.2,1.2
				c-0.2-0.1-0.3,0-0.4,0.2c-0.1,0.2-0.2,0.3-0.3,0.4c-0.2,0.2-0.5,0.3-0.8,0.4c-0.3,0-0.6,0.1-0.9,0.3c0.1,0.4,0.2,0.7,0.2,1
				c0,0.3,0.2,0.5,0.4,0.7c0.2,0.9,0.4,1.6,0.6,2.3c0.2,0.6,0.4,1.3,0.6,1.9c0.2,0.6,0.3,1.2,0.3,1.7c0.1,0.6,0,1-0.1,1.4
				c0.1,0.6,0.2,1.2,0.4,1.7c0.2,0.5,0.4,1.1,0.6,1.5c0.2,0.5,0.5,1,0.7,1.5c0.3,0.5,0.5,1,0.7,1.6c0.1,0.2,0.2,0.5,0.2,0.8
				c0,0.3,0.1,0.6,0.2,0.8c0.5,1.5,1,3.1,1.7,4.6c0.7,1.6,1.2,3.3,1.7,5.2c0.4,0,0.7-0.1,1-0.3c0.3-0.2,0.6-0.2,1.1-0.2
				c0.1,0.1,0.2,0.1,0.4,0.1c0.1,0,0.2,0.1,0.3,0.1c0.3,0,0.5,0.1,0.7,0.1c0.2,0,0.4,0.2,0.6,0.6c0.1,0.1,0.1,0.2,0.2,0.4
				c0.1,0.2,0.1,0.4,0.2,0.6c0.2,0.4,0.3,0.7,0.4,1C470.6,409.6,470.6,409.9,470.7,410.2z M441.5,371.7c-0.2,0-0.3,0-0.5,0.1
				c-0.2,0.1-0.3,0.1-0.5,0.1s-0.3-0.1-0.4-0.2c-0.1-0.1-0.3-0.5-0.4-0.9c0.1-0.4,0.3-0.7,0.4-0.7c0.2-0.1,0.3-0.1,0.5-0.2
				c0.4,0.1,0.7,0.4,1,1C441.7,371.3,441.7,371.6,441.5,371.7z M446.7,385.9c0.4-0.1,0.6-0.2,0.7-0.4c0.1-0.2,0.2-0.4,0.2-0.6
				c-0.2-0.6-0.3-1.3-0.3-2c0-0.7-0.2-1.3-0.4-1.9c-0.2-0.4-0.4-0.8-0.6-1c-0.2-0.2-0.4-0.6-0.6-0.7c-0.2-0.1-0.9-0.1-1.3-0.2
				c-0.4-0.1-0.7,0.2-0.8,0.9c0.1,0.2,0.2,0.3,0.4,0.3c0.1,0,0.2,0,0.4,0c0.2,0.1,0.5,0.4,0.8,1c0.2,0.4,0.4,0.7,0.4,1.1
				c0.1,0.3,0.2,0.7,0.2,1c0.1,0.4,0.2,0.8,0.4,1.2C446.6,385.2,446.7,385.6,446.7,385.9z M449.7,390.4c-0.1-0.4-0.2-0.8-0.3-1.2
				c-0.1-0.4-0.3-0.7-0.5-0.8c-0.1-0.1-0.3-0.2-0.5-0.1c-0.2,0.1-0.4,0.2-0.4,0.3c-0.1,0.3,0,0.6,0.2,0.9c0.1,0.3,0.2,0.6,0.3,0.9
				C448.9,390.6,449.3,390.6,449.7,390.4z M454.4,425c0.2-0.1,0.5-0.4,0.9-0.6c0.4-0.2,0.8-0.1,1.1,0.3c-0.5,1-1.1,1.7-1.6,2.2
				c-0.6,0.5-1.2,0.6-1.8,0.6c-0.5-0.1-0.9-0.4-1.1-1c-0.2-0.7-0.4-1.3-0.5-1.8c-0.1-0.4-0.2-0.8-0.4-1.3c-0.2-0.5-0.3-0.9-0.4-1.3
				c-0.1-0.4-0.1-0.7-0.1-1c0-0.3,0.1-0.5,0.4-0.6c0.2,0.1,0.4,0.4,0.5,0.7c0.1,0.3,0.3,0.7,0.4,1c0.1,0.4,0.2,0.7,0.3,1.1
				c0.1,0.3,0.1,0.7,0.2,0.9c0.3,0.7,0.6,1,0.9,1.1C453.5,425.3,454.1,425.3,454.4,425z M455.1,419.7c0.1-0.1,0.3-0.3,0.3-0.6
				c0.1-0.3,0.1-0.5,0-0.7c-0.1-0.1-0.3-0.3-0.5-0.4c-0.3-0.1-0.5-0.2-0.7-0.2c-0.2,0-0.3,0-0.3,0.2c0,0.1-0.1,0.3-0.3,0.4
				c0,0.3,0,0.6,0.1,0.8c0,0.2,0.1,0.5,0.2,0.9c0.4-0.1,0.7-0.1,0.8-0.2C454.9,419.9,455,419.8,455.1,419.7z M461.9,377.2
				c0.2,0.2,0.4,0.5,0.5,0.8c0.1,0.3,0.2,0.7,0.3,1c0.1,0.4,0.1,0.7,0.2,1.1c0.1,0.3,0.1,0.7,0.2,0.9c0,0.1-0.1,0.2-0.1,0.3
				c0,0.1-0.1,0.2-0.2,0.3c-0.1,0.1-0.3,0-0.4,0c-0.2,0-0.3,0-0.5,0c-0.4,0-0.6-0.2-0.7-0.4c-0.1-0.2-0.2-0.4-0.2-0.6
				c0.5-0.3,0.7-0.8,0.8-1.5c0-0.3-0.1-0.6-0.2-1c-0.1-0.4-0.2-0.7-0.2-1c0.1-0.2,0.2-0.3,0.3-0.2
				C461.7,377,461.8,377.1,461.9,377.2z M461.4,375.5c-0.1,0.4-0.3,0.4-0.4,0.1c-0.2-0.3-0.3-0.6-0.4-1c0-0.2,0.1-0.4,0.2-0.4
				c0.1,0,0.3,0.1,0.4,0.3c0.1,0.1,0.1,0.3,0.1,0.4C461.2,375.1,461.2,375.3,461.4,375.5z M465.9,404c-0.3-0.7-0.5-1.4-0.7-2
				c-0.2-0.6-0.4-1.4-0.6-2.1c-0.1-0.5-0.3-0.9-0.4-1.3c-0.1-0.4-0.2-0.8-0.3-1.1c-0.1-0.3-0.2-0.7-0.2-1.1c0-0.4,0.1-0.5,0.5-0.4
				c0.1,0.1,0.1,0.2,0.2,0.4c0.1,0.2,0.1,0.3,0.2,0.4c0.2,0.9,0.6,1.9,1,2.9c0.4,1,0.9,1.9,1.3,2.6c0.2,0.1,0.4,0.3,0.6,0.4
				c0.2,0.1,0.4,0.1,0.7,0.1c0.2,0.1,0.4,0.4,0.5,0.7c0.1,0.4,0.1,0.6-0.1,0.8c-0.4,0-0.8,0-1.2,0.1c-0.4,0.1-0.7,0-1.1-0.1
				C466.1,404.2,466,404.1,465.9,404z"/>
			<path class="st3" d="M503,394.6c-0.1,0.1-0.3,0.3-0.4,0.4c-0.1,0.1-0.1,0.3-0.2,0.5c0,0.1-0.1,0.2-0.1,0.3c0,0.1-0.1,0.2-0.1,0.3
				c0,0.2,0,0.5,0,0.7c0.1,0.2,0.1,0.5,0,0.7c0,0.2,0,0.4-0.1,0.5c-0.1,0.2-0.1,0.4-0.1,0.6c-0.6,0.7-1.1,1.3-1.6,1.7
				c-0.5,0.4-1.1,0.8-1.7,1.2c-0.1,0.1-0.3,0.2-0.4,0.4c-0.2,0.1-0.3,0.3-0.5,0.4c-0.2,0.2-0.5,0.3-0.8,0.5
				c-0.3,0.1-0.5,0.3-0.8,0.5c-0.2,0.1-0.4,0.2-0.5,0.4c-0.1,0.1-0.3,0.2-0.5,0.3c-0.2,0.1-0.5,0.2-0.9,0.4c-0.4,0.2-0.7,0.3-1,0.3
				c-0.4,0-0.7,0-0.9,0.1c-0.2,0.1-0.4,0.2-0.6,0.2c-1,0.2-1.7,0.5-2.1,1c-0.3,0.3-0.6,0.6-0.8,0.9c-0.2,0.3-0.6,0.6-1.1,0.8
				c-0.2,0.1-0.5,0.2-0.8,0.2c-0.3,0-0.6,0-0.9,0c-0.3,0-0.6,0.1-0.8,0.1c-0.3,0-0.5,0.1-0.7,0.1c-0.3,0-0.6,0-1-0.1
				c-0.3,0-0.5,0-0.7,0c-0.2,0-0.5-0.1-0.7-0.2c-0.4-0.1-0.9,0-1.4,0c-0.5,0-1-0.1-1.4-0.4c-0.2-0.1-0.4-0.2-0.6-0.4
				c-0.2-0.2-0.4-0.4-0.6-0.6c-0.2-0.3-0.3-0.7-0.4-1.3c-0.1-0.6-0.2-1-0.1-1.2c0-0.1,0-0.2,0.1-0.4c0-0.1,0-0.2,0.1-0.4
				c-0.1-0.8,0-1.4,0.2-1.8c-0.1-0.2-0.2-0.3-0.1-0.4c0.1-0.1,0.1-0.2,0.1-0.4c0.1-0.7,0.2-1.1,0.5-1.1c0.3,0,0.6,0,0.9,0.1
				c0.2,0,0.4,0,0.5,0c0.1,0,0.3,0,0.5,0c0.3,0.1,0.6,0.1,1,0c0.3,0,0.7-0.1,0.9-0.1c0.3,0,0.6,0.1,0.9,0.2c0.3,0.1,0.5,0.3,0.7,0.6
				c0.7,0.1,1.2,0.1,1.4,0c0.2-0.1,0.2-0.3,0.3-0.5c0-0.3,0.1-0.5,0.2-0.6c0.1-0.1,0.2-0.2,0.4-0.2c0.2,0,0.4,0,0.5-0.1
				c0.7-0.3,1.2-0.9,1.6-1.7c0.1-0.3,0.1-0.5,0.2-0.7c0.1-0.2,0.1-0.4,0-0.7c-0.1-0.1-0.2-0.3-0.2-0.4c0-0.1-0.1-0.3-0.3-0.5
				c-0.2-0.2-0.4-0.4-0.7-0.6c-0.3-0.2-0.6-0.4-0.8-0.5c-0.2-0.1-0.4-0.1-0.5-0.1c-0.1,0-0.3-0.1-0.5-0.2c-0.4-0.2-0.6-0.3-0.7-0.3
				s-0.1,0-0.2,0c-0.2-0.1-0.5-0.2-0.8-0.4c-0.3-0.2-0.5-0.3-0.8-0.4c-0.1,0-0.3-0.1-0.4-0.2c-0.2-0.1-0.3-0.1-0.4-0.2
				c-0.7-0.3-1.5-0.7-2.4-1.1c-0.8-0.4-1.6-0.9-2.4-1.4c-0.2-0.3-0.5-0.6-0.8-0.6c-0.3-0.1-0.5-0.3-0.8-0.5c-0.3,0-0.6-0.1-0.9-0.1
				c-0.3-0.1-0.6-0.1-0.9-0.1c-0.4-0.1-0.8-0.4-1.2-0.7c-0.4-0.3-0.8-0.6-1.2-0.8c-0.4-0.5-0.8-0.9-1.1-1.2
				c-0.3-0.2-0.6-0.6-0.9-0.9c-0.2-0.3-0.5-0.6-0.7-0.9c-0.2-0.3-0.5-0.7-0.7-1c-0.4-0.5-0.7-1-1-1.5c-0.3-0.5-0.6-1.1-0.9-1.7
				c-0.1-0.2-0.2-0.5-0.3-0.8c-0.1-0.3-0.1-0.6-0.2-1c0-0.2-0.1-0.3-0.1-0.5c-0.1-0.1-0.1-0.3-0.1-0.4c-0.1-0.5-0.2-0.9-0.2-1.3
				c0-0.4-0.1-0.9-0.2-1.4c0.1-0.3,0.1-0.6,0.1-1c0-0.3,0-0.7,0.1-1c0.1-0.3,0.1-0.6,0.2-0.9c0.1-0.3,0.2-0.6,0.3-0.7
				c0-0.1,0.1-0.2,0.2-0.2c0.1,0,0.2-0.1,0.2-0.1c0.4-0.2,0.7-0.3,0.9-0.2c0.2,0.1,0.4,0.2,0.6,0.2c0.2,0.1,0.4,0.1,0.5,0.1
				c0.2,0,0.3-0.2,0.4-0.4c0.1-0.1,0.1-0.3,0.1-0.5c0-0.2,0-0.5,0-0.7c0-0.3,0-0.6,0-0.8c0-0.2,0.1-0.4,0-0.7
				c0.2-0.3,0.4-0.6,0.6-0.8c0.2-0.3,0.4-0.5,0.7-0.6c0.5-0.2,1-0.4,1.5-0.5c0.2-0.1,0.4-0.2,0.6-0.3c0.2-0.1,0.4-0.2,0.7-0.2
				c0.5-0.1,1-0.1,1.5-0.2c0.5,0,1-0.1,1.5-0.2c0.2-0.1,0.5-0.1,0.8,0c0.3,0.1,0.5,0.1,0.7,0.2c0.2,0.1,0.4,0.3,0.6,0.5
				c0.2,0.2,0.4,0.3,0.7,0.3c0.4,0,0.6,0,0.8-0.4c0.1-0.3,0.4-0.6,0.6-0.6c0.4-0.1,1.1,0,1.6,0c0.6,0,1.2,0.1,1.7,0.3
				c0.2,0.1,0.3,0.2,0.4,0.3c0.1,0.1,0.3,0.1,0.4,0.1c0.5,0.1,0.9,0.2,1.2,0.3c0.3,0.2,0.6,0.3,0.9,0.4c0.2,0.1,0.4,0.1,0.7,0.2
				c0.2,0.1,0.4,0.1,0.6,0.2c0.4,0.2,0.8,0.4,1.1,0.6c0.4,0.2,0.8,0.4,1.1,0.6c0.2,0.1,0.4,0.4,0.6,0.6c0.2,0.2,0.4,0.5,0.5,0.8
				c0.1,0.4,0.2,0.7,0.1,1c-0.1,0.3-0.2,0.5-0.3,0.7c0,0.2,0,0.3,0,0.5c0,0.2,0,0.3,0,0.5c-0.1,0.2-0.2,0.5-0.3,0.8
				c-0.1,0.3-0.4,0.5-0.8,0.5c-0.2,0-0.3-0.1-0.5-0.2c-0.2-0.1-0.4-0.2-0.5-0.3c-0.1-0.1-0.2-0.1-0.3-0.1c-0.1,0-0.2,0-0.3-0.1
				c-0.1-0.1-0.2-0.1-0.3-0.2c-0.1,0-0.2-0.1-0.3-0.2c-0.4-0.1-0.7-0.3-0.8-0.5c-0.2-0.2-0.4-0.3-0.6-0.4c-0.4-0.2-0.7-0.1-0.9,0.1
				c-0.2,0.2-0.6,0.4-0.9,0.4c-0.2,0-0.4,0-0.6-0.1c-0.2-0.1-0.4-0.1-0.6-0.2c-0.8,0-1.5,0.2-2,0.5c-0.5,0.3-0.8,0.8-0.9,1.3
				c-0.1,0.2-0.2,0.5-0.2,0.8c0,0.5,0.2,0.9,0.2,1.1c0,0.2,0.1,0.5,0.3,0.8c0.1,0.2,0.3,0.4,0.4,0.4c0.2,0.1,0.3,0.2,0.5,0.3
				c0.1,0.1,0.2,0.2,0.4,0.4c0.1,0.1,0.3,0.3,0.5,0.5c0.6,0.4,1,0.6,1.2,0.6c0.2,0,0.4,0.1,0.6,0.3c0.1,0.1,0.3,0.1,0.4,0.3
				c0.1,0.1,0.3,0.2,0.4,0.3c0.4,0.2,0.7,0.3,0.8,0.4c0.1,0.1,0.2,0.2,0.3,0.2c0.2,0.1,0.4,0.2,0.7,0.3c0.3,0.1,0.5,0.2,0.7,0.4
				c0.2,0.2,0.4,0.4,0.5,0.7c0.1,0.2,0.2,0.4,0.4,0.6c0.3,0.3,0.6,0.5,0.8,0.8c0.3,0.2,0.6,0.4,0.9,0.4c0.6,0.1,1.2,0,1.7-0.2
				c0.6,0.3,1.2,0.5,1.8,0.7c0.6,0.2,1.4,0.5,1.7,0.8c0.4,0.4,0.7,1.1,1.1,1.5c0.4,0.3,0.9,0.5,1.4,0.4c0.1,0.1,0.2,0.2,0.4,0.2
				c0.1,0,0.3,0.2,0.4,0.3c0.4,0.1,0.7,0.4,1,0.6c0.3,0.3,0.6,0.5,0.9,0.8c0.4,0.5,0.8,1,1.2,1.5c0.4,0.5,0.8,1.1,1,1.7
				c0.1,0.4,0.2,0.8,0.3,0.9c0.1,0.1,0.2,0.3,0.2,0.3c0.1,0.4,0.1,0.8,0.2,0.9c0.1,0.1,0.1,0.2,0.1,0.3c0,0.3,0.1,0.6,0,0.8
				C503.1,394.1,503.1,394.5,503,394.6z M466,369c-0.1,0.1-0.2,0.1-0.4,0.1c-0.2-0.1-0.4-0.3-0.5-0.7c-0.1-0.4-0.1-0.7,0.2-1
				c0.2-0.3,0.4-0.5,0.6-0.7c0.3-0.4,0.5-0.7,0.7-1.1c0.2-0.4,0.5-0.7,0.9-0.9c0.1-0.1,0.3-0.1,0.4-0.2c0.2,0,0.4-0.1,0.5-0.2
				c0.1-0.1,0.3-0.2,0.6-0.4c0.3-0.2,0.5-0.1,0.8,0.3c0,0.2-0.1,0.3-0.2,0.3c-0.1,0-0.3,0.1-0.4,0.1c-0.1,0.1-0.2,0.2-0.3,0.3
				c-0.1,0.1-0.2,0.1-0.3,0.1c-0.1,0.2-0.2,0.4-0.4,0.6c-0.2,0.2-0.3,0.3-0.5,0.5c0.1,0.4,0.2,0.8,0.2,1.4c0.1,0.5,0,0.8-0.2,1
				s-0.4,0.2-0.7,0.1c-0.3-0.1-0.5-0.1-0.7-0.2C466.3,368.6,466.2,368.8,466,369z M469.6,374.4c0.1-0.1,0.2-0.3,0.2-0.6
				c0-0.3,0-0.7-0.1-0.8c-0.1-0.1-0.3-0.1-0.5,0c-0.1,0.1-0.2,0.1-0.4,0.1c-0.6-0.2-1-0.1-1.2,0.1c-0.1,0.7-0.2,1.2-0.2,1.6
				c0,0.4,0,0.9,0.1,1c0,0.1,0.2,0.2,0.3,0.4c0.1,0.2,0.2,0.4,0.2,0.5c0.1,0.2,0.1,0.3,0.2,0.5c0.1,0.1,0.2,0.2,0.3,0.1
				c0.1-0.4,0.1-0.8,0-1.3c-0.1-0.5-0.1-0.8,0.1-1.1c0.1-0.1,0.2-0.2,0.4-0.3C469.3,374.6,469.4,374.5,469.6,374.4z M472.5,382.8
				c0-0.3,0-0.6-0.2-1.1c-0.2-0.4-0.3-0.8-0.5-1.2c-0.1-0.1-0.2-0.2-0.4-0.4c-0.2-0.2-0.3-0.3-0.4-0.4c-0.1,0-0.2,0-0.4,0.1
				c-0.2,0.1-0.3,0.2-0.4,0.3c-0.2,0.2-0.2,0.5-0.1,1c0.1,0.5,0.2,0.9,0.5,1.3c0.2,0.3,0.6,0.6,0.9,0.7
				C471.9,383.1,472.2,383,472.5,382.8z M472,363.3c0,0.2,0,0.4-0.1,0.5c-0.1,0.1-0.2,0.2-0.3,0.3c-0.1,0-0.3,0-0.4-0.1
				c-0.1-0.1-0.3-0.3-0.4-0.7c0.1-0.2,0.2-0.4,0.4-0.5c0.2-0.2,0.4-0.1,0.7,0.1C471.9,363.1,471.9,363.2,472,363.3z M482.5,409.6
				c0.3-0.3,0.7-0.3,1.1-0.2c0.5,0.1,0.8,0.4,0.9,0.9c0.1,0.4,0,0.8-0.3,1c-0.3,0.3-0.7,0.3-1,0.1c-0.1-0.3-0.2-0.4-0.3-0.7
				c-0.2-0.1-0.3-0.2-0.5-0.2c-0.2,0-0.4-0.3-0.5-0.3c-0.2-0.1-0.9,0.1-1.3,0.1c-0.4-0.1-0.8-0.1-1.2-0.2c-0.3,0.2-0.6,0.3-0.8,0.4
				c-0.2,0.1-0.4,0.1-0.6,0.1c-0.4,0-0.7-0.1-1-0.3c-0.3-0.2-0.6-0.5-0.8-0.9c-0.2-0.4-0.4-0.9-0.5-1.4c-0.1-0.5-0.1-1-0.2-1.5
				c0-0.5,0-0.9,0.1-1.1c0.5,0.1,0.7,0.2,0.8,0.5c0.1,0.3,0.1,0.6,0.2,1c0.1,0.4,0.1,0.7,0.2,1c0.1,0.3,0.2,0.6,0.5,0.9
				c0.7,0.2,1.1,0.3,1.1,0.3c0.3,0,0.6-0.1,0.8,0c0.2,0.1,0.4,0.1,0.5,0.1c0.5,0,1.1-0.1,1.4,0c0.3,0.1,0.6,0.3,1,0.5
				C482.3,409.6,482.4,409.6,482.5,409.6z M484.7,398.4c-0.2,0.3-0.4,0.4-0.8,0.4c-0.4,0-0.6-0.2-0.8-0.3c-0.1-0.1-0.2-0.3-0.2-0.3
				c0-0.1,0-0.2-0.1-0.5c0-0.5,0.3-0.7,0.6-0.7c0.4,0,0.7,0,1,0c0.2,0,0.5-0.1,0.6-0.2c0.2-0.1,0.3-0.3,0.6-0.4
				c0.2,0.3,0.3,0.5,0.3,0.5c0,0.1,0,0.1,0,0.2c-0.1,0.2-0.3,0.4-0.5,0.5c-0.2,0.1-0.4,0.2-0.6,0.4
				C484.8,398.2,484.8,398.3,484.7,398.4z M492,406.2c0.3,0,0.4,0.1,0.5,0.3c0.1,0.2,0.1,0.5,0,0.6c-0.1,0.2-0.3,0.4-0.5,0.6
				c-0.2,0.2-0.4,0.4-0.7,0.5c-0.4,0-0.7,0.1-1,0.3c-0.2,0.2-0.4,0.1-0.6-0.2c0.2-0.4,0.6-0.8,1-1.1
				C491.1,406.9,491.6,406.5,492,406.2z M487,373.2c0.2-0.2,0.4-0.2,0.6-0.1c0.2,0.1,0.4,0.4,0.6,0.7c0,0.3-0.2,0.5-0.4,0.5
				c-0.3,0.1-0.5,0-0.7-0.4c-0.1-0.2-0.1-0.3-0.1-0.4C487,373.5,487,373.4,487,373.2z M487.5,369.9c0,0.2,0.1,0.4,0.3,0.6
				c0.2,0.2,0.5,0.3,0.7,0.3c0.3,0,0.5,0,0.6-0.1c0.2-0.1,0.2-0.4,0-0.6c-0.1-0.1-0.5-0.3-1-0.5
				C487.8,369.5,487.6,369.6,487.5,369.9z M492,372.6c0.1-0.1,0.3-0.3,0.3-0.6c0-0.3,0.1-0.5,0.4-0.5c0.2,0.5,0.3,0.9,0.3,1.2
				c0,0.3,0,0.6-0.2,0.8c-0.2,0.5-0.2,1.1-0.3,1.9c-0.1,0.2-0.3,0.3-0.4,0.4c-0.2,0.1-0.4,0.1-0.8,0.1c-0.4-0.2-0.7-0.2-0.7-0.2
				c-0.1,0-0.1,0-0.2,0c-0.2,0-0.4-0.1-0.6-0.3c-0.2-0.1-0.5-0.2-0.7-0.3c-0.2-0.3-0.4-0.6-0.4-0.9s0-0.5,0.2-0.6
				c0.3,0.2,0.7,0.3,1.1,0.3c0.4,0,0.7,0.1,1,0.4c0.3,0,0.5,0,0.5-0.1c0.1-0.1,0.2-0.2,0.3-0.3c0.1-0.1,0.1-0.4,0.2-0.7
				C491.9,373.1,491.9,372.8,492,372.6z M494.9,388.3c0.3,0.2,0.6,0.3,0.9,0.1c0.3-0.1,0.6-0.3,0.6-0.6c0-0.2-0.1-0.5-0.3-0.6
				c-0.2-0.1-0.4-0.2-0.6-0.2c-0.2,0-0.4,0.1-0.6,0.2c-0.2,0.1-0.3,0.2-0.3,0.4c0,0.1,0,0.2,0.1,0.3
				C494.8,388,494.9,388.1,494.9,388.3z M499.9,393.5c0.1-0.2,0.2-0.3,0.3-0.4c0.1-0.1,0.3-0.3,0.3-0.5c0.1-0.2,0-0.6,0-1.1
				c-0.1-0.4-0.2-0.8-0.5-1.2c-0.2-0.2-0.4-0.4-0.7-0.5c-0.1,0-0.3,0-0.4,0c-0.2,0-0.5,0.1-0.5,0.1c-0.1,0.1,0.2,0.6,0.4,0.7
				c0.2,0.1,0.4,0.4,0.5,0.7c0,0.1,0,0.2,0,0.4c0,0.2,0,0.3-0.1,0.4c-0.1,0.2-0.2,0.5-0.3,0.7c-0.1,0.2-0.3,0.4-0.4,0.6
				c-0.1,0.3-0.1,0.7,0,1.3c0.1,0.5,0.3,0.8,0.8,0.9c0.1-0.1,0.1-0.2,0.2-0.3c0.1-0.1,0.1-0.2,0.1-0.3c0.1-0.2,0.1-0.5,0.1-0.8
				C499.7,394,499.8,393.8,499.9,393.5z M504.6,394.6c0.1,0,0.3,0.1,0.5,0.2c0.1,0.2,0.4,0.4,0.5,0.6c0.2,0.5,0.1,1.3-0.1,1.9
				c-0.3,0.7-0.8,1-1.6,1c-0.1-0.2-0.1-0.3,0-0.3c0.1-0.1,0.1-0.1,0.2-0.2c0.1-0.1,0.1-0.2,0.1-0.4c0-0.1,0-0.3,0-0.5
				c0-0.1,0-0.2,0.1-0.4c0.1-0.1,0.1-0.2,0.1-0.4c0-0.1,0-0.3,0-0.4c0-0.2,0-0.3,0-0.5c0-0.1,0.1-0.2,0.2-0.4
				C504.5,394.8,504.5,394.7,504.6,394.6z"/>
		</g>
	</g>
</g>
<g id="Layer_3">
	<path class="st4" d="M488.8,401.4h-1.6c-4.7,0-8.5-3.8-8.5-8.5V252.2c0-4.7,3.8-8.5,8.5-8.5h1.6c4.7,0,8.5,3.8,8.5,8.5v140.8
		C497.3,397.6,493.5,401.4,488.8,401.4z"/>
	<circle class="st4" cx="487.4" cy="421.1" r="9.9"/>
</g>
</svg>
