<?xml version="1.0" encoding="utf-8"?>
<!-- Generator: Adobe Illustrator 21.1.0, SVG Export Plug-In . SVG Version: 6.00 Build 0)  -->
<svg version="1.1" id="Layer_2" xmlns="http://www.w3.org/2000/svg" xmlns:xlink="http://www.w3.org/1999/xlink" x="0px" y="0px"
	 viewBox="0 0 800 800" style="enable-background:new 0 0 800 800;" xml:space="preserve">
<style type="text/css">
	.st0{fill:#219B55;stroke:#446640;stroke-width:2;stroke-miterlimit:10;}
	.st1{fill:#F9F9F9;stroke:#5B3231;stroke-width:2;stroke-miterlimit:10;}
	.st2{fill:#FFFFFF;stroke:#5B3231;stroke-width:2;stroke-miterlimit:10;}
	.st3{fill:#FDE3E3;}
	.st4{fill:#FCFCFC;stroke:#5B3231;stroke-width:2;stroke-miterlimit:10;}
	.st5{fill:none;stroke:#FCFCFC;stroke-width:8;stroke-linecap:round;stroke-miterlimit:10;}
	.st6{fill:#F9A7A8;}
</style>
<rect x="374.9" y="181.1" transform="matrix(0.9658 -0.2594 0.2594 0.9658 -66.3609 110.5738)" class="st0" width="21.6" height="251.1"/>
<path class="st1" d="M424.3,277.1c-8.9,2.9-19.8,4.7-31.6,4.7c-11.8,0-22.7-1.7-31.6-4.7c-50.7,13-88,56.7-88,108.6
	c0,62.2,53.6,112.6,119.6,112.6s119.6-50.4,119.6-112.6C512.4,333.8,475.1,290.2,424.3,277.1z"/>
<polygon class="st2" points="478.8,711 308.9,711 274.8,390.6 515.1,390.6 "/>
<polygon class="st3" points="478.8,711 308.9,711 284.5,394 505.3,394 "/>
<path class="st4" d="M530.4,419.3H253c-4.4,0-8-3.6-8-8V410c0-4.4,3.6-8,8-8h277.4c4.4,0,8,3.6,8,8v1.3
	C538.4,415.7,534.8,419.3,530.4,419.3z"/>
<path class="st4" d="M517.9,402H264.4c-4.1,0-7.5-3.4-7.5-7.5v-1.2c0-4.1,3.4-7.5,7.5-7.5h253.5c4.1,0,7.5,3.4,7.5,7.5v1.2
	C525.4,398.6,522,402,517.9,402z"/>
<line class="st5" x1="456.1" y1="685.6" x2="473.4" y2="534"/>
<line class="st5" x1="478.8" y1="489.6" x2="483.7" y2="458.9"/>
<circle class="st6" cx="348.9" cy="594.6" r="9.2"/>
<circle class="st6" cx="404.1" cy="563.2" r="12.4"/>
<circle class="st6" cx="421.4" cy="641.2" r="4.9"/>
<ellipse class="st6" cx="393.3" cy="629.8" rx="10.3" ry="10.8"/>
<circle class="st6" cx="406.3" cy="606.5" r="9.2"/>
<circle class="st6" cx="456.1" cy="587.1" r="12.4"/>
<ellipse class="st6" cx="445.3" cy="653.6" rx="10.3" ry="10.8"/>
<circle class="st6" cx="318.3" cy="526" r="7.8"/>
<circle class="st6" cx="364.9" cy="499.5" r="10.5"/>
<ellipse class="st6" cx="355.8" cy="555.7" rx="8.7" ry="9.1"/>
<circle class="st6" cx="345.7" cy="687.7" r="12.4"/>
</svg>
